<svg width="350" height="382" viewBox="0 0 350 382" fill="none" xmlns="http://www.w3.org/2000/svg">
<rect width="350" height="382" rx="8" fill="#0E8784"/>
<g clip-path="url(#clip0_0_2090)">
<path d="M68.5441 215.628H71.7001C72.1961 215.628 72.5481 215.532 72.7561 215.34C72.9721 215.14 73.1641 214.76 73.3321 214.2C73.4121 213.928 73.5281 213.732 73.6801 213.612C73.8321 213.492 74.0081 213.432 74.2081 213.432C74.6321 213.432 74.9001 213.668 75.0121 214.14L75.9481 217.92C76.0201 218.216 76.0161 218.452 75.9361 218.628C75.8641 218.796 75.7121 218.92 75.4801 219C75.2561 219.08 75.0441 219.092 74.8441 219.036C74.6521 218.98 74.4881 218.852 74.3521 218.652C74.0961 218.284 73.8601 218.004 73.6441 217.812C73.4361 217.62 73.2001 217.488 72.9361 217.416C72.6801 217.344 72.3441 217.308 71.9281 217.308H68.5441V215.628ZM63.3961 209.016C63.3961 208.76 63.4801 208.56 63.6481 208.416C63.8161 208.272 64.0761 208.2 64.4281 208.2H73.4761C73.8441 208.2 74.1481 208.164 74.3881 208.092C74.6281 208.02 74.8521 207.948 75.0601 207.876C75.2761 207.804 75.5241 207.768 75.8041 207.768C76.1641 207.768 76.4361 207.872 76.6201 208.08C76.8041 208.28 76.9641 208.608 77.1001 209.064L78.1201 212.436C78.2081 212.724 78.2081 212.964 78.1201 213.156C78.0321 213.348 77.8641 213.488 77.6161 213.576C77.3281 213.68 77.0681 213.68 76.8361 213.576C76.6121 213.472 76.4281 213.284 76.2841 213.012C75.9401 212.38 75.6161 211.864 75.3121 211.464C75.0081 211.056 74.7001 210.74 74.3881 210.516C74.0841 210.292 73.7601 210.136 73.4161 210.048C73.0801 209.96 72.7001 209.916 72.2761 209.916H70.6561V221.82C70.6561 222.308 70.7761 222.676 71.0161 222.924C71.2641 223.164 71.6161 223.284 72.0721 223.284H72.6361C73.2361 223.284 73.7641 223.192 74.2201 223.008C74.6841 222.816 75.1241 222.464 75.5401 221.952C75.9561 221.432 76.3961 220.684 76.8601 219.708C76.9801 219.452 77.1401 219.28 77.3401 219.192C77.5481 219.096 77.7801 219.072 78.0361 219.12C78.3161 219.176 78.5201 219.308 78.6481 219.516C78.7761 219.716 78.7961 219.968 78.7081 220.272L77.5921 224.136C77.4641 224.576 77.3041 224.9 77.1121 225.108C76.9281 225.324 76.6401 225.432 76.2481 225.432C76.0001 225.432 75.7721 225.396 75.5641 225.324C75.3641 225.252 75.1401 225.18 74.8921 225.108C74.6521 225.036 74.3481 225 73.9801 225H64.4281C64.0761 225 63.8161 224.928 63.6481 224.784C63.4801 224.632 63.3961 224.432 63.3961 224.184C63.3961 223.752 63.6041 223.456 64.0201 223.296L64.4761 223.128C64.6841 223.048 64.8361 222.948 64.9321 222.828C65.0361 222.7 65.0881 222.536 65.0881 222.336V210.864C65.0881 210.664 65.0361 210.504 64.9321 210.384C64.8361 210.256 64.6841 210.152 64.4761 210.072L64.0201 209.904C63.6041 209.744 63.3961 209.448 63.3961 209.016ZM84.1773 218.592L85.5093 219.24L83.4933 221.916C83.2213 222.284 83.1053 222.608 83.1453 222.888C83.1933 223.16 83.3413 223.356 83.5893 223.476L83.8173 223.584C83.9773 223.664 84.0973 223.756 84.1773 223.86C84.2573 223.964 84.2973 224.096 84.2973 224.256C84.2973 224.48 84.2173 224.66 84.0573 224.796C83.8973 224.924 83.6813 224.988 83.4093 224.988H80.0853C79.8133 224.988 79.5973 224.924 79.4373 224.796C79.2853 224.66 79.2093 224.48 79.2093 224.256C79.2093 224.096 79.2533 223.96 79.3413 223.848C79.4293 223.728 79.5853 223.604 79.8093 223.476C80.0813 223.348 80.3253 223.196 80.5413 223.02C80.7653 222.836 81.0013 222.604 81.2493 222.324C81.4973 222.036 81.7933 221.676 82.1373 221.244L84.1773 218.592ZM86.7093 215.76L88.6053 218.436L88.8093 218.676L91.6413 222.456C91.8893 222.776 92.0853 223.016 92.2293 223.176C92.3813 223.328 92.5293 223.448 92.6733 223.536C92.8413 223.64 92.9653 223.748 93.0453 223.86C93.1253 223.972 93.1653 224.108 93.1653 224.268C93.1653 224.492 93.0853 224.672 92.9253 224.808C92.7653 224.936 92.5453 225 92.2653 225H85.9653C85.6773 225 85.4533 224.936 85.2933 224.808C85.1333 224.672 85.0533 224.488 85.0533 224.256C85.0533 224.096 85.0853 223.968 85.1493 223.872C85.2213 223.768 85.3253 223.688 85.4613 223.632L85.7013 223.536C85.8693 223.472 85.9533 223.376 85.9533 223.248C85.9533 223.112 85.8693 222.928 85.7013 222.696L83.8053 219.984L83.5893 219.72L80.9373 215.88C80.7533 215.608 80.5693 215.408 80.3853 215.28C80.2093 215.144 80.0293 215.036 79.8453 214.956C79.6373 214.868 79.4933 214.764 79.4133 214.644C79.3413 214.524 79.3053 214.368 79.3053 214.176C79.3053 213.944 79.3853 213.764 79.5453 213.636C79.7053 213.5 79.9253 213.432 80.2053 213.432H86.3493C86.6213 213.432 86.8373 213.496 86.9973 213.624C87.1573 213.752 87.2373 213.932 87.2373 214.164C87.2373 214.316 87.2093 214.444 87.1533 214.548C87.0973 214.652 87.0133 214.744 86.9013 214.824L86.6733 214.98C86.5453 215.068 86.4813 215.168 86.4813 215.28C86.4893 215.392 86.5653 215.552 86.7093 215.76ZM88.0533 219.828L86.7213 219.18L88.7373 216.504C89.0173 216.136 89.1333 215.816 89.0853 215.544C89.0453 215.264 88.8973 215.064 88.6413 214.944L88.4133 214.836C88.2533 214.756 88.1333 214.664 88.0533 214.56C87.9733 214.448 87.9333 214.316 87.9333 214.164C87.9333 213.932 88.0133 213.752 88.1733 213.624C88.3333 213.496 88.5493 213.432 88.8213 213.432H92.1453C92.4253 213.432 92.6413 213.496 92.7933 213.624C92.9453 213.752 93.0213 213.932 93.0213 214.164C93.0213 214.324 92.9773 214.464 92.8893 214.584C92.8013 214.696 92.6453 214.816 92.4213 214.944C92.0213 215.128 91.6613 215.384 91.3413 215.712C91.0293 216.04 90.6133 216.528 90.0933 217.176L88.0533 219.828ZM105.995 216.78C105.995 217.388 105.763 217.904 105.299 218.328C104.843 218.752 104.231 218.964 103.463 218.964C102.719 218.964 102.159 218.768 101.783 218.376C101.415 217.976 101.231 217.468 101.231 216.852V216.468C101.231 215.948 101.123 215.54 100.907 215.244C100.691 214.94 100.407 214.788 100.055 214.788C99.7754 214.788 99.5114 214.892 99.2634 215.1C99.0234 215.308 98.8274 215.628 98.6754 216.06C98.5234 216.484 98.4474 217.024 98.4474 217.68C98.4474 218.608 98.6034 219.384 98.9154 220.008C99.2354 220.632 99.6714 221.104 100.223 221.424C100.775 221.736 101.403 221.892 102.107 221.892C102.619 221.892 103.079 221.832 103.487 221.712C103.903 221.584 104.315 221.34 104.723 220.98C104.955 220.772 105.131 220.632 105.251 220.56C105.371 220.488 105.487 220.452 105.599 220.452C105.759 220.452 105.875 220.532 105.947 220.692C106.027 220.852 106.067 221.048 106.067 221.28C106.067 221.992 105.827 222.66 105.347 223.284C104.875 223.9 104.215 224.396 103.367 224.772C102.519 225.148 101.535 225.336 100.415 225.336C99.1914 225.336 98.0914 225.096 97.1154 224.616C96.1474 224.128 95.3794 223.452 94.8114 222.588C94.2434 221.716 93.9594 220.7 93.9594 219.54C93.9594 218.3 94.2314 217.192 94.7754 216.216C95.3274 215.24 96.1034 214.472 97.1034 213.912C98.1114 213.352 99.2994 213.072 100.667 213.072C101.763 213.072 102.707 213.24 103.499 213.576C104.299 213.904 104.915 214.348 105.347 214.908C105.779 215.468 105.995 216.092 105.995 216.78ZM113.63 207.96V222.48C113.63 222.8 113.654 223.028 113.702 223.164C113.75 223.292 113.834 223.384 113.954 223.44L114.218 223.56C114.402 223.64 114.534 223.74 114.614 223.86C114.694 223.98 114.734 224.12 114.734 224.28C114.734 224.504 114.662 224.68 114.518 224.808C114.374 224.936 114.142 225 113.822 225H108.35C108.03 225 107.798 224.936 107.654 224.808C107.51 224.68 107.438 224.504 107.438 224.28C107.438 224.12 107.478 223.98 107.558 223.86C107.638 223.74 107.77 223.64 107.954 223.56L108.218 223.44C108.338 223.384 108.422 223.292 108.47 223.164C108.518 223.028 108.542 222.8 108.542 222.48V210.648C108.542 210.392 108.506 210.212 108.434 210.108C108.37 209.996 108.27 209.92 108.134 209.88L107.87 209.796C107.702 209.74 107.578 209.66 107.498 209.556C107.426 209.452 107.39 209.32 107.39 209.16C107.39 208.968 107.442 208.816 107.546 208.704C107.65 208.592 107.846 208.48 108.134 208.368L110.798 207.336C111.23 207.168 111.57 207.052 111.818 206.988C112.066 206.916 112.286 206.88 112.478 206.88C112.862 206.88 113.15 206.984 113.342 207.192C113.534 207.392 113.63 207.648 113.63 207.96ZM124.672 222.54V222.384H124.492V216.84C124.492 216.584 124.456 216.404 124.384 216.3C124.32 216.188 124.22 216.112 124.084 216.072L123.82 215.988C123.652 215.932 123.528 215.852 123.448 215.748C123.376 215.644 123.34 215.512 123.34 215.352C123.34 215.16 123.392 215.008 123.496 214.896C123.6 214.784 123.796 214.672 124.084 214.56L126.748 213.528C127.156 213.368 127.484 213.252 127.732 213.18C127.988 213.108 128.236 213.072 128.476 213.072C128.836 213.072 129.108 213.176 129.292 213.384C129.484 213.584 129.58 213.84 129.58 214.152V222.48C129.58 222.8 129.604 223.028 129.652 223.164C129.7 223.292 129.784 223.384 129.904 223.44L130.168 223.56C130.352 223.64 130.484 223.74 130.564 223.86C130.644 223.98 130.684 224.12 130.684 224.28C130.684 224.504 130.612 224.68 130.468 224.808C130.324 224.936 130.092 225 129.772 225H126.832C126.264 225 125.76 224.756 125.32 224.268C124.888 223.78 124.672 223.204 124.672 222.54ZM116.74 221.496V216.84C116.74 216.584 116.704 216.404 116.632 216.3C116.568 216.188 116.468 216.112 116.332 216.072L116.068 215.988C115.9 215.932 115.776 215.852 115.696 215.748C115.624 215.644 115.588 215.512 115.588 215.352C115.588 215.16 115.64 215.008 115.744 214.896C115.848 214.784 116.044 214.672 116.332 214.56L118.996 213.528C119.428 213.36 119.768 213.244 120.016 213.18C120.264 213.108 120.484 213.072 120.676 213.072C121.06 213.072 121.348 213.176 121.54 213.384C121.732 213.584 121.828 213.84 121.828 214.152V220.776C121.828 221.288 121.944 221.672 122.176 221.928C122.416 222.184 122.748 222.312 123.172 222.312C123.436 222.312 123.712 222.26 124 222.156C124.288 222.052 124.544 221.9 124.768 221.7L125.188 221.328L125.908 222.096L125.548 222.432C124.42 223.512 123.44 224.268 122.608 224.7C121.776 225.124 121.012 225.336 120.316 225.336C119.252 225.336 118.388 224.98 117.724 224.268C117.068 223.556 116.74 222.632 116.74 221.496ZM137.771 214.596C137.299 214.596 136.947 214.696 136.715 214.896C136.491 215.096 136.379 215.336 136.379 215.616C136.379 215.784 136.411 215.944 136.475 216.096C136.539 216.24 136.687 216.372 136.919 216.492C137.151 216.612 137.519 216.716 138.023 216.804C139.511 217.052 140.643 217.384 141.419 217.8C142.195 218.208 142.723 218.692 143.003 219.252C143.291 219.812 143.435 220.448 143.435 221.16C143.435 222.464 142.979 223.488 142.067 224.232C141.163 224.968 139.823 225.336 138.047 225.336C137.439 225.336 136.951 225.288 136.583 225.192C136.223 225.096 135.931 225 135.707 224.904C135.491 224.808 135.295 224.76 135.119 224.76C134.927 224.76 134.767 224.808 134.639 224.904C134.511 225 134.383 225.096 134.255 225.192C134.127 225.288 133.963 225.336 133.763 225.336C133.563 225.336 133.411 225.276 133.307 225.156C133.211 225.044 133.119 224.84 133.031 224.544L132.407 222.42C132.279 221.996 132.243 221.664 132.299 221.424C132.355 221.176 132.507 221.004 132.755 220.908C133.011 220.812 133.235 220.808 133.427 220.896C133.619 220.984 133.803 221.16 133.979 221.424C134.347 221.96 134.727 222.404 135.119 222.756C135.519 223.108 135.935 223.372 136.367 223.548C136.807 223.724 137.259 223.812 137.723 223.812C138.259 223.812 138.659 223.712 138.923 223.512C139.195 223.312 139.331 223.044 139.331 222.708C139.331 222.5 139.275 222.32 139.163 222.168C139.059 222.016 138.839 221.88 138.503 221.76C138.175 221.632 137.675 221.508 137.003 221.388C135.843 221.18 134.919 220.884 134.231 220.5C133.551 220.108 133.063 219.628 132.767 219.06C132.471 218.484 132.323 217.816 132.323 217.056C132.323 216.248 132.539 215.548 132.971 214.956C133.411 214.356 134.007 213.892 134.759 213.564C135.519 213.236 136.383 213.072 137.351 213.072C137.983 213.072 138.479 213.124 138.839 213.228C139.207 213.324 139.503 213.424 139.727 213.528C139.959 213.624 140.187 213.672 140.411 213.672C140.627 213.672 140.807 213.624 140.951 213.528C141.103 213.424 141.251 213.324 141.395 213.228C141.539 213.124 141.707 213.072 141.899 213.072C142.075 213.072 142.223 213.136 142.343 213.264C142.463 213.392 142.551 213.612 142.607 213.924L142.979 215.976C143.051 216.384 143.055 216.692 142.991 216.9C142.935 217.1 142.791 217.248 142.559 217.344C142.311 217.448 142.091 217.448 141.899 217.344C141.707 217.232 141.511 217.036 141.311 216.756C140.751 215.948 140.163 215.388 139.547 215.076C138.939 214.756 138.347 214.596 137.771 214.596ZM151.036 214.152V222.48C151.036 222.8 151.06 223.028 151.108 223.164C151.156 223.292 151.24 223.384 151.36 223.44L151.624 223.56C151.808 223.64 151.94 223.74 152.02 223.86C152.1 223.98 152.14 224.12 152.14 224.28C152.14 224.504 152.068 224.68 151.924 224.808C151.78 224.936 151.548 225 151.228 225H145.756C145.436 225 145.204 224.936 145.06 224.808C144.916 224.68 144.844 224.504 144.844 224.28C144.844 224.12 144.884 223.98 144.964 223.86C145.044 223.74 145.176 223.64 145.36 223.56L145.624 223.44C145.744 223.384 145.828 223.292 145.876 223.164C145.924 223.028 145.948 222.8 145.948 222.48V216.84C145.948 216.584 145.912 216.404 145.84 216.3C145.776 216.188 145.676 216.112 145.54 216.072L145.276 215.988C145.108 215.932 144.984 215.852 144.904 215.748C144.832 215.644 144.796 215.512 144.796 215.352C144.796 215.16 144.848 215.008 144.952 214.896C145.056 214.784 145.252 214.672 145.54 214.56L148.204 213.528C148.636 213.36 148.976 213.244 149.224 213.18C149.472 213.108 149.692 213.072 149.884 213.072C150.268 213.072 150.556 213.176 150.748 213.384C150.94 213.584 151.036 213.84 151.036 214.152ZM148.228 212.016C147.332 212.016 146.624 211.808 146.104 211.392C145.584 210.976 145.324 210.408 145.324 209.688C145.324 208.976 145.584 208.416 146.104 208.008C146.624 207.6 147.332 207.396 148.228 207.396C149.124 207.396 149.832 207.6 150.352 208.008C150.872 208.416 151.132 208.976 151.132 209.688C151.132 210.408 150.872 210.976 150.352 211.392C149.832 211.808 149.124 212.016 148.228 212.016ZM160.578 225H158.634C158.298 225 158.006 224.916 157.758 224.748C157.51 224.572 157.31 224.3 157.158 223.932L153.81 215.772C153.69 215.484 153.594 215.292 153.522 215.196C153.45 215.092 153.37 215.02 153.282 214.98L153.03 214.86C152.87 214.78 152.754 214.688 152.682 214.584C152.61 214.472 152.574 214.328 152.574 214.152C152.574 213.928 152.65 213.752 152.802 213.624C152.962 213.496 153.178 213.432 153.45 213.432H159.906C160.482 213.432 160.77 213.672 160.77 214.152C160.77 214.328 160.722 214.472 160.626 214.584C160.538 214.688 160.39 214.772 160.182 214.836L159.858 214.932C159.538 215.028 159.342 215.184 159.27 215.4C159.198 215.616 159.262 215.984 159.462 216.504L161.814 222.648L160.662 223.332L163.122 216.504C163.314 215.976 163.374 215.604 163.302 215.388C163.23 215.172 163.038 215.02 162.726 214.932L162.402 214.836C162.202 214.772 162.054 214.688 161.958 214.584C161.862 214.472 161.814 214.328 161.814 214.152C161.814 213.928 161.89 213.752 162.042 213.624C162.202 213.496 162.414 213.432 162.678 213.432H165.786C166.058 213.432 166.27 213.496 166.422 213.624C166.582 213.752 166.662 213.928 166.662 214.152C166.662 214.304 166.626 214.44 166.554 214.56C166.482 214.672 166.342 214.764 166.134 214.836L165.906 214.92C165.762 214.976 165.622 215.128 165.486 215.376C165.358 215.616 165.186 216.012 164.97 216.564L162.078 224.04C161.926 224.424 161.714 224.68 161.442 224.808C161.17 224.936 160.882 225 160.578 225ZM179.454 217.704C179.454 218.264 179.302 218.7 178.998 219.012C178.694 219.316 178.258 219.468 177.69 219.468H170.574V218.22H173.778C174.218 218.22 174.438 218.012 174.438 217.596C174.438 216.588 174.322 215.868 174.09 215.436C173.858 215.004 173.55 214.788 173.166 214.788C172.886 214.788 172.634 214.892 172.41 215.1C172.186 215.308 172.006 215.628 171.87 216.06C171.742 216.484 171.678 217.024 171.678 217.68C171.678 219.136 172.006 220.204 172.662 220.884C173.318 221.556 174.214 221.892 175.35 221.892C175.878 221.892 176.358 221.832 176.79 221.712C177.222 221.592 177.646 221.348 178.062 220.98C178.294 220.772 178.47 220.632 178.59 220.56C178.71 220.488 178.826 220.452 178.938 220.452C179.098 220.452 179.214 220.532 179.286 220.692C179.366 220.852 179.406 221.048 179.406 221.28C179.406 221.992 179.162 222.66 178.674 223.284C178.194 223.9 177.522 224.396 176.658 224.772C175.802 225.148 174.802 225.336 173.658 225.336C172.434 225.336 171.334 225.096 170.358 224.616C169.382 224.128 168.61 223.452 168.042 222.588C167.474 221.716 167.19 220.7 167.19 219.54C167.19 218.236 167.45 217.1 167.97 216.132C168.49 215.164 169.246 214.412 170.238 213.876C171.238 213.34 172.442 213.072 173.85 213.072C175.09 213.072 176.126 213.272 176.958 213.672C177.79 214.072 178.414 214.62 178.83 215.316C179.246 216.012 179.454 216.808 179.454 217.704ZM191.481 207.96V224.112L189.489 224.784C188.809 225.008 188.333 225.152 188.061 225.216C187.789 225.28 187.537 225.312 187.305 225.312C187.033 225.312 186.813 225.236 186.645 225.084C186.477 224.932 186.393 224.712 186.393 224.424V210.648C186.393 210.392 186.357 210.212 186.285 210.108C186.221 209.996 186.121 209.92 185.985 209.88L185.721 209.796C185.553 209.74 185.429 209.66 185.349 209.556C185.277 209.452 185.241 209.32 185.241 209.16C185.241 208.968 185.293 208.816 185.397 208.704C185.501 208.592 185.697 208.48 185.985 208.368L188.649 207.336C189.081 207.168 189.421 207.052 189.669 206.988C189.917 206.916 190.137 206.88 190.329 206.88C190.713 206.88 191.001 206.984 191.193 207.192C191.385 207.392 191.481 207.648 191.481 207.96ZM190.581 217.488L189.729 216.672C190.417 215.552 191.189 214.672 192.045 214.032C192.901 213.392 193.881 213.072 194.985 213.072C195.937 213.072 196.789 213.316 197.541 213.804C198.293 214.292 198.885 214.968 199.317 215.832C199.757 216.688 199.977 217.68 199.977 218.808C199.977 220.112 199.709 221.256 199.173 222.24C198.637 223.216 197.905 223.976 196.977 224.52C196.049 225.064 195.001 225.336 193.833 225.336C192.865 225.336 192.017 225.132 191.289 224.724C190.569 224.308 189.945 223.68 189.417 222.84L190.725 221.952C191.093 222.48 191.441 222.856 191.769 223.08C192.097 223.296 192.453 223.404 192.837 223.404C193.213 223.404 193.541 223.268 193.821 222.996C194.109 222.724 194.329 222.288 194.481 221.688C194.641 221.088 194.721 220.3 194.721 219.324C194.721 218.428 194.637 217.708 194.469 217.164C194.309 216.612 194.089 216.212 193.809 215.964C193.529 215.708 193.205 215.58 192.837 215.58C192.397 215.58 191.993 215.732 191.625 216.036C191.257 216.332 190.909 216.816 190.581 217.488ZM213.415 217.704C213.415 218.264 213.263 218.7 212.958 219.012C212.655 219.316 212.219 219.468 211.651 219.468H204.535V218.22H207.739C208.179 218.22 208.399 218.012 208.399 217.596C208.399 216.588 208.283 215.868 208.051 215.436C207.819 215.004 207.511 214.788 207.127 214.788C206.847 214.788 206.595 214.892 206.371 215.1C206.147 215.308 205.967 215.628 205.831 216.06C205.703 216.484 205.639 217.024 205.639 217.68C205.639 219.136 205.967 220.204 206.622 220.884C207.279 221.556 208.175 221.892 209.311 221.892C209.839 221.892 210.319 221.832 210.751 221.712C211.183 221.592 211.607 221.348 212.023 220.98C212.255 220.772 212.431 220.632 212.551 220.56C212.671 220.488 212.787 220.452 212.898 220.452C213.059 220.452 213.175 220.532 213.247 220.692C213.327 220.852 213.367 221.048 213.367 221.28C213.367 221.992 213.123 222.66 212.635 223.284C212.155 223.9 211.483 224.396 210.619 224.772C209.763 225.148 208.763 225.336 207.618 225.336C206.395 225.336 205.295 225.096 204.319 224.616C203.343 224.128 202.571 223.452 202.003 222.588C201.435 221.716 201.151 220.7 201.151 219.54C201.151 218.236 201.411 217.1 201.931 216.132C202.451 215.164 203.207 214.412 204.199 213.876C205.199 213.34 206.403 213.072 207.811 213.072C209.051 213.072 210.087 213.272 210.919 213.672C211.751 214.072 212.375 214.62 212.791 215.316C213.207 216.012 213.415 216.808 213.415 217.704ZM220.88 214.152V222.48C220.88 222.8 220.904 223.024 220.952 223.152C221 223.28 221.084 223.376 221.204 223.44L221.444 223.572C221.708 223.724 221.84 223.944 221.84 224.232C221.84 224.744 221.532 225 220.916 225H215.6C215.28 225 215.048 224.936 214.904 224.808C214.76 224.68 214.688 224.504 214.688 224.28C214.688 224.12 214.728 223.98 214.808 223.86C214.888 223.74 215.02 223.64 215.204 223.56L215.468 223.44C215.588 223.384 215.672 223.292 215.72 223.164C215.768 223.028 215.792 222.8 215.792 222.48V216.84C215.792 216.584 215.756 216.404 215.684 216.3C215.62 216.188 215.52 216.112 215.384 216.072L215.12 215.988C214.952 215.932 214.828 215.852 214.748 215.748C214.676 215.644 214.64 215.512 214.64 215.352C214.64 215.16 214.692 215.008 214.796 214.896C214.9 214.784 215.096 214.672 215.384 214.56L218.048 213.528C218.456 213.368 218.784 213.252 219.032 213.18C219.288 213.108 219.536 213.072 219.776 213.072C220.136 213.072 220.408 213.176 220.592 213.384C220.784 213.584 220.88 213.84 220.88 214.152ZM220.448 217.08L219.728 216.312L220.088 215.976C221.216 214.896 222.196 214.144 223.028 213.72C223.86 213.288 224.624 213.072 225.32 213.072C226.392 213.072 227.256 213.428 227.912 214.14C228.568 214.844 228.896 215.768 228.896 216.912V222.48C228.896 222.8 228.92 223.028 228.968 223.164C229.016 223.292 229.1 223.384 229.22 223.44L229.484 223.56C229.668 223.64 229.8 223.74 229.88 223.86C229.96 223.98 230 224.12 230 224.28C230 224.504 229.928 224.68 229.784 224.808C229.64 224.936 229.408 225 229.088 225H223.772C223.156 225 222.848 224.744 222.848 224.232C222.848 223.944 222.98 223.724 223.244 223.572L223.484 223.44C223.604 223.376 223.688 223.28 223.736 223.152C223.784 223.024 223.808 222.8 223.808 222.48V217.632C223.808 217.12 223.688 216.736 223.448 216.48C223.216 216.224 222.888 216.096 222.464 216.096C222.2 216.096 221.924 216.148 221.636 216.252C221.348 216.356 221.092 216.508 220.868 216.708L220.448 217.08ZM243.297 217.704C243.297 218.264 243.145 218.7 242.841 219.012C242.537 219.316 242.101 219.468 241.533 219.468H234.417V218.22H237.621C238.061 218.22 238.281 218.012 238.281 217.596C238.281 216.588 238.165 215.868 237.933 215.436C237.701 215.004 237.393 214.788 237.009 214.788C236.729 214.788 236.477 214.892 236.253 215.1C236.029 215.308 235.849 215.628 235.713 216.06C235.585 216.484 235.521 217.024 235.521 217.68C235.521 219.136 235.849 220.204 236.505 220.884C237.161 221.556 238.057 221.892 239.193 221.892C239.721 221.892 240.201 221.832 240.633 221.712C241.065 221.592 241.489 221.348 241.905 220.98C242.137 220.772 242.313 220.632 242.433 220.56C242.553 220.488 242.669 220.452 242.781 220.452C242.941 220.452 243.057 220.532 243.129 220.692C243.209 220.852 243.249 221.048 243.249 221.28C243.249 221.992 243.005 222.66 242.517 223.284C242.037 223.9 241.365 224.396 240.501 224.772C239.645 225.148 238.645 225.336 237.501 225.336C236.277 225.336 235.177 225.096 234.201 224.616C233.225 224.128 232.453 223.452 231.885 222.588C231.317 221.716 231.033 220.7 231.033 219.54C231.033 218.236 231.293 217.1 231.813 216.132C232.333 215.164 233.089 214.412 234.081 213.876C235.081 213.34 236.285 213.072 237.693 213.072C238.933 213.072 239.969 213.272 240.801 213.672C241.633 214.072 242.257 214.62 242.673 215.316C243.089 216.012 243.297 216.808 243.297 217.704ZM251.483 222.468C251.483 222.756 251.523 222.976 251.603 223.128C251.691 223.28 251.843 223.368 252.059 223.392L253.295 223.548C253.535 223.572 253.703 223.652 253.799 223.788C253.903 223.924 253.955 224.084 253.955 224.268C253.955 224.756 253.663 225 253.079 225H245.615C245.351 225 245.139 224.94 244.979 224.82C244.827 224.692 244.751 224.52 244.751 224.304C244.751 224.104 244.803 223.944 244.907 223.824C245.011 223.696 245.179 223.596 245.411 223.524L245.723 223.428C245.979 223.348 246.155 223.236 246.251 223.092C246.347 222.948 246.395 222.748 246.395 222.492V216.492C246.395 216.34 246.355 216.208 246.275 216.096C246.195 215.984 246.039 215.876 245.807 215.772L245.363 215.568C245.059 215.424 244.847 215.288 244.727 215.16C244.615 215.024 244.559 214.872 244.559 214.704C244.559 214.512 244.627 214.356 244.763 214.236C244.907 214.108 245.127 214.044 245.423 214.044H247.451L246.419 214.428V214.068C246.419 213.908 246.347 213.744 246.203 213.576C246.059 213.408 245.891 213.216 245.699 213C245.507 212.784 245.339 212.524 245.195 212.22C245.051 211.908 244.979 211.532 244.979 211.092C244.979 210.004 245.415 209.128 246.287 208.464C247.159 207.792 248.391 207.456 249.983 207.456C250.999 207.456 251.855 207.612 252.551 207.924C253.247 208.228 253.771 208.636 254.123 209.148C254.483 209.652 254.663 210.2 254.663 210.792C254.663 211.448 254.475 211.948 254.099 212.292C253.723 212.636 253.239 212.808 252.647 212.808C251.975 212.808 251.439 212.616 251.039 212.232C250.639 211.84 250.439 211.316 250.439 210.66V209.676C250.439 209.348 250.339 209.108 250.139 208.956C249.947 208.796 249.703 208.716 249.407 208.716C249.063 208.716 248.803 208.82 248.627 209.028C248.459 209.228 248.375 209.516 248.375 209.892C248.375 210.292 248.463 210.652 248.639 210.972C248.823 211.292 249.047 211.584 249.311 211.848C249.583 212.112 249.851 212.364 250.115 212.604C250.387 212.844 250.611 213.084 250.787 213.324C250.971 213.564 251.063 213.82 251.063 214.092V214.752L250.535 214.044H253.355C253.603 214.044 253.799 214.1 253.943 214.212C254.095 214.316 254.171 214.468 254.171 214.668C254.171 214.972 254.023 215.228 253.727 215.436C253.431 215.644 252.943 215.748 252.263 215.748H251.483V222.468ZM261.731 214.152V222.48C261.731 222.8 261.755 223.028 261.803 223.164C261.851 223.292 261.935 223.384 262.055 223.44L262.319 223.56C262.503 223.64 262.635 223.74 262.715 223.86C262.795 223.98 262.835 224.12 262.835 224.28C262.835 224.504 262.763 224.68 262.619 224.808C262.475 224.936 262.243 225 261.923 225H256.451C256.131 225 255.899 224.936 255.755 224.808C255.611 224.68 255.539 224.504 255.539 224.28C255.539 224.12 255.579 223.98 255.659 223.86C255.739 223.74 255.871 223.64 256.055 223.56L256.319 223.44C256.439 223.384 256.523 223.292 256.571 223.164C256.619 223.028 256.643 222.8 256.643 222.48V216.84C256.643 216.584 256.607 216.404 256.535 216.3C256.471 216.188 256.371 216.112 256.235 216.072L255.971 215.988C255.803 215.932 255.679 215.852 255.599 215.748C255.527 215.644 255.491 215.512 255.491 215.352C255.491 215.16 255.543 215.008 255.647 214.896C255.751 214.784 255.947 214.672 256.235 214.56L258.899 213.528C259.331 213.36 259.671 213.244 259.919 213.18C260.167 213.108 260.387 213.072 260.579 213.072C260.963 213.072 261.251 213.176 261.443 213.384C261.635 213.584 261.731 213.84 261.731 214.152ZM258.923 212.016C258.027 212.016 257.319 211.808 256.799 211.392C256.279 210.976 256.019 210.408 256.019 209.688C256.019 208.976 256.279 208.416 256.799 208.008C257.319 207.6 258.027 207.396 258.923 207.396C259.819 207.396 260.527 207.6 261.047 208.008C261.567 208.416 261.827 208.976 261.827 209.688C261.827 210.408 261.567 210.976 261.047 211.392C260.527 211.808 259.819 212.016 258.923 212.016ZM264.433 214.992L264.049 214.836C263.873 214.764 263.741 214.672 263.653 214.56C263.565 214.448 263.521 214.312 263.521 214.152C263.521 213.92 263.597 213.744 263.749 213.624C263.909 213.496 264.113 213.432 264.361 213.432H265.021C265.173 213.432 265.313 213.392 265.441 213.312C265.577 213.232 265.749 213.088 265.957 212.88L267.913 210.9C268.177 210.636 268.421 210.44 268.645 210.312C268.877 210.184 269.097 210.12 269.305 210.12C269.537 210.12 269.717 210.196 269.845 210.348C269.981 210.5 270.049 210.72 270.049 211.008V220.632C270.049 221.216 270.149 221.66 270.349 221.964C270.549 222.268 270.837 222.42 271.213 222.42C271.517 222.42 271.749 222.344 271.909 222.192C272.077 222.04 272.209 221.868 272.305 221.676C272.409 221.476 272.517 221.3 272.629 221.148C272.741 220.996 272.893 220.92 273.085 220.92C273.245 220.92 273.373 220.976 273.469 221.088C273.565 221.2 273.613 221.392 273.613 221.664C273.613 222.344 273.417 222.964 273.025 223.524C272.633 224.076 272.093 224.516 271.405 224.844C270.717 225.172 269.933 225.336 269.053 225.336C267.749 225.336 266.741 225.024 266.029 224.4C265.317 223.768 264.961 222.816 264.961 221.544V215.772C264.961 215.54 264.917 215.372 264.829 215.268C264.749 215.164 264.617 215.072 264.433 214.992ZM268.297 215.136V213.432H272.677C272.925 213.432 273.121 213.488 273.265 213.6C273.417 213.704 273.493 213.856 273.493 214.056C273.493 214.36 273.345 214.616 273.049 214.824C272.753 215.032 272.265 215.136 271.585 215.136H268.297ZM280.294 214.596C279.822 214.596 279.47 214.696 279.238 214.896C279.014 215.096 278.902 215.336 278.902 215.616C278.902 215.784 278.934 215.944 278.998 216.096C279.062 216.24 279.21 216.372 279.442 216.492C279.674 216.612 280.042 216.716 280.546 216.804C282.034 217.052 283.166 217.384 283.942 217.8C284.718 218.208 285.246 218.692 285.526 219.252C285.814 219.812 285.958 220.448 285.958 221.16C285.958 222.464 285.502 223.488 284.59 224.232C283.686 224.968 282.346 225.336 280.57 225.336C279.962 225.336 279.474 225.288 279.106 225.192C278.746 225.096 278.454 225 278.23 224.904C278.014 224.808 277.818 224.76 277.642 224.76C277.45 224.76 277.29 224.808 277.162 224.904C277.034 225 276.906 225.096 276.778 225.192C276.65 225.288 276.486 225.336 276.286 225.336C276.086 225.336 275.934 225.276 275.83 225.156C275.734 225.044 275.642 224.84 275.554 224.544L274.93 222.42C274.802 221.996 274.766 221.664 274.822 221.424C274.878 221.176 275.03 221.004 275.278 220.908C275.534 220.812 275.758 220.808 275.95 220.896C276.142 220.984 276.326 221.16 276.502 221.424C276.87 221.96 277.25 222.404 277.642 222.756C278.042 223.108 278.458 223.372 278.89 223.548C279.33 223.724 279.782 223.812 280.246 223.812C280.782 223.812 281.182 223.712 281.446 223.512C281.718 223.312 281.854 223.044 281.854 222.708C281.854 222.5 281.798 222.32 281.686 222.168C281.582 222.016 281.362 221.88 281.026 221.76C280.698 221.632 280.198 221.508 279.526 221.388C278.366 221.18 277.442 220.884 276.754 220.5C276.074 220.108 275.586 219.628 275.29 219.06C274.994 218.484 274.846 217.816 274.846 217.056C274.846 216.248 275.062 215.548 275.494 214.956C275.934 214.356 276.53 213.892 277.282 213.564C278.042 213.236 278.906 213.072 279.874 213.072C280.506 213.072 281.002 213.124 281.362 213.228C281.73 213.324 282.026 213.424 282.25 213.528C282.482 213.624 282.71 213.672 282.934 213.672C283.15 213.672 283.33 213.624 283.474 213.528C283.626 213.424 283.774 213.324 283.918 213.228C284.062 213.124 284.23 213.072 284.422 213.072C284.598 213.072 284.746 213.136 284.866 213.264C284.986 213.392 285.074 213.612 285.13 213.924L285.502 215.976C285.574 216.384 285.578 216.692 285.514 216.9C285.458 217.1 285.314 217.248 285.082 217.344C284.834 217.448 284.614 217.448 284.422 217.344C284.23 217.232 284.034 217.036 283.834 216.756C283.274 215.948 282.686 215.388 282.07 215.076C281.462 214.756 280.87 214.596 280.294 214.596Z" fill="#FEFCF7"/>
<path d="M63.9164 275.128C66.3004 275.128 67.6444 273.928 67.6444 272.184C67.6444 270.36 66.1404 269.608 64.1724 268.808C62.2364 268.056 61.3404 267.672 61.3404 266.472C61.3404 265.304 62.1724 264.664 63.6764 264.664C65.4684 264.664 66.4284 265.576 66.4284 266.776V267.016C66.4284 267.144 66.5084 267.224 66.6364 267.224H67.3404C67.4684 267.224 67.5484 267.144 67.5484 267.016V266.712C67.5484 264.888 66.1084 263.672 63.7404 263.672C61.5644 263.672 60.2204 264.696 60.2204 266.504C60.2204 268.344 61.6444 268.936 63.5644 269.704C65.6444 270.568 66.5084 271.096 66.5084 272.232C66.5084 273.352 65.6764 274.136 63.9964 274.136C62.2364 274.136 61.1644 273.272 61.1644 272.072V271.688C61.1644 271.56 61.0844 271.48 60.9564 271.48H60.2684C60.1404 271.48 60.0604 271.56 60.0604 271.688V272.136C60.0604 273.944 61.5484 275.128 63.9164 275.128ZM76.0914 268.92C75.7074 267.624 74.6834 266.776 73.1634 266.776C72.3154 266.776 71.5954 267.128 71.1314 267.752C71.0834 267.8 71.0354 267.784 71.0354 267.72V267.112C71.0354 266.984 70.9554 266.904 70.8274 266.904H70.1074C69.9794 266.904 69.8994 266.984 69.8994 267.112V277.896C69.8994 278.024 69.9794 278.104 70.1074 278.104H70.8274C70.9554 278.104 71.0354 278.024 71.0354 277.896V274.2C71.0354 274.136 71.0834 274.104 71.1314 274.168C71.5954 274.776 72.3154 275.128 73.1634 275.128C74.7154 275.128 75.7394 274.264 76.1234 272.936C76.2834 272.392 76.3154 271.736 76.3154 270.952C76.3154 270.136 76.2674 269.48 76.0914 268.92ZM74.8114 272.968C74.5394 273.656 73.8994 274.136 73.0354 274.136C72.1874 274.136 71.6114 273.64 71.3554 272.936C71.1634 272.504 71.0674 272.024 71.0674 270.952C71.0674 269.896 71.1474 269.416 71.3394 269C71.5954 268.28 72.1714 267.768 73.0514 267.768C73.9474 267.768 74.6354 268.248 74.8914 269.016C75.0834 269.448 75.1794 269.912 75.1794 270.952C75.1794 272.056 75.0514 272.536 74.8114 272.968ZM81.7211 274.152C80.5531 274.152 79.7691 273.512 79.5451 272.584C79.4811 272.344 79.4491 271.944 79.4491 271.416C79.4491 271.368 79.4811 271.336 79.5291 271.336H84.6491C84.7771 271.336 84.8571 271.256 84.8571 271.128C84.8571 270.376 84.8411 269.96 84.7611 269.528C84.4731 267.848 83.4651 266.776 81.5611 266.776C79.9771 266.776 78.8251 267.688 78.4731 269.064C78.3451 269.56 78.3291 270.104 78.3291 270.92C78.3291 271.816 78.4091 272.536 78.6331 273.128C79.0651 274.36 80.1051 275.128 81.6251 275.128C83.0651 275.128 84.1051 274.424 84.6011 273.384C84.6651 273.272 84.6171 273.176 84.5051 273.112L84.0411 272.856C83.9291 272.792 83.8171 272.84 83.7691 272.952C83.4011 273.672 82.7131 274.136 81.7211 274.152ZM81.5611 267.768C82.6651 267.768 83.4011 268.408 83.6251 269.336C83.6731 269.56 83.7051 269.928 83.7211 270.36C83.7211 270.408 83.6891 270.44 83.6411 270.44H79.5291C79.4811 270.44 79.4491 270.408 79.4491 270.36C79.4651 269.896 79.4971 269.528 79.5771 269.272C79.7851 268.392 80.4731 267.768 81.5611 267.768ZM90.1719 275.128C91.7399 275.128 92.9879 274.28 93.3079 273.048C93.3399 272.936 93.3559 272.84 93.3719 272.776C93.3879 272.632 93.3079 272.552 93.1799 272.536L92.4919 272.424C92.3639 272.408 92.2679 272.456 92.2519 272.6L92.2359 272.616C92.2359 272.632 92.2359 272.664 92.2199 272.696C92.0439 273.512 91.2439 274.136 90.1719 274.136C89.0839 274.136 88.3479 273.496 88.1399 272.568C88.0599 272.248 87.9959 271.72 87.9959 270.936C87.9959 270.216 88.0599 269.656 88.1399 269.32C88.3479 268.408 89.0839 267.768 90.1719 267.768C91.2759 267.768 92.0599 268.44 92.2359 269.224C92.2519 269.288 92.2679 269.352 92.2679 269.416C92.2999 269.56 92.3799 269.608 92.5079 269.592L93.2119 269.512C93.3399 269.496 93.4199 269.416 93.4039 269.272C93.3879 269.16 93.3559 269 93.3079 268.84C92.9879 267.704 91.7879 266.776 90.1719 266.776C88.6199 266.776 87.4519 267.656 87.0679 268.968C86.9399 269.464 86.8599 270.04 86.8599 270.92C86.8599 271.736 86.9079 272.36 87.0679 272.904C87.4679 274.248 88.6039 275.128 90.1719 275.128ZM96.1164 265.448C96.6284 265.448 96.9804 265.112 96.9804 264.616C96.9804 264.136 96.6284 263.8 96.1164 263.8C95.6044 263.8 95.2524 264.136 95.2524 264.616C95.2524 265.112 95.6044 265.448 96.1164 265.448ZM95.7644 275H96.4844C96.6124 275 96.6924 274.92 96.6924 274.792V267.112C96.6924 266.984 96.6124 266.904 96.4844 266.904H95.7644C95.6364 266.904 95.5564 266.984 95.5564 267.112V274.792C95.5564 274.92 95.6364 275 95.7644 275ZM102.15 266.776C100.502 266.776 99.3183 267.576 99.1103 268.744C99.0943 268.856 99.1743 268.904 99.3023 268.92L100.086 269.016C100.214 269.032 100.294 268.984 100.326 268.856C100.502 268.184 101.158 267.768 102.166 267.768C103.494 267.768 104.038 268.488 104.038 269.528V270.12C104.038 270.168 104.006 270.2 103.958 270.2H102.102C100.022 270.2 98.8063 271.192 98.8063 272.792C98.8063 274.472 100.086 275.128 101.446 275.128C102.454 275.128 103.35 274.808 103.942 274.184C103.99 274.12 104.038 274.152 104.038 274.216V274.792C104.038 274.92 104.118 275 104.246 275H104.966C105.094 275 105.174 274.92 105.174 274.792V269.464C105.174 267.88 104.102 266.776 102.15 266.776ZM101.702 274.152C100.726 274.152 99.9423 273.704 99.9423 272.728C99.9423 271.688 100.886 271.096 102.278 271.096H103.958C104.006 271.096 104.038 271.128 104.038 271.176V272.408C104.038 273.528 102.886 274.152 101.702 274.152ZM107.73 275H108.45C108.578 275 108.658 274.92 108.658 274.792V264.008C108.658 263.88 108.578 263.8 108.45 263.8H107.73C107.602 263.8 107.522 263.88 107.522 264.008V274.792C107.522 274.92 107.602 275 107.73 275ZM117.548 275.128C119.068 275.128 120.236 274.28 120.652 272.904C120.812 272.376 120.876 271.704 120.876 270.936C120.876 270.184 120.812 269.512 120.652 268.968C120.252 267.624 119.084 266.776 117.548 266.776C115.964 266.776 114.812 267.624 114.396 268.984C114.252 269.496 114.188 270.152 114.188 270.936C114.188 271.704 114.252 272.376 114.412 272.904C114.828 274.28 115.98 275.128 117.548 275.128ZM117.548 274.136C116.476 274.136 115.708 273.528 115.468 272.568C115.372 272.216 115.34 271.64 115.34 270.952C115.34 270.28 115.372 269.688 115.468 269.336C115.724 268.392 116.476 267.768 117.516 267.768C118.588 267.768 119.356 268.392 119.596 269.336C119.692 269.688 119.724 270.248 119.724 270.952C119.724 271.592 119.692 272.184 119.596 272.568C119.34 273.528 118.572 274.136 117.548 274.136ZM126.285 264.792H126.605C126.733 264.792 126.813 264.712 126.813 264.584V264.008C126.813 263.88 126.733 263.8 126.605 263.8H126.189C124.205 263.8 123.645 264.552 123.645 266.456V266.824C123.645 266.872 123.613 266.904 123.565 266.904H122.557C122.429 266.904 122.349 266.984 122.349 267.112V267.736C122.349 267.864 122.429 267.944 122.557 267.944H123.565C123.613 267.944 123.645 267.976 123.645 268.024V274.792C123.645 274.92 123.725 275 123.853 275H124.557C124.685 275 124.765 274.92 124.765 274.792V268.024C124.765 267.976 124.797 267.944 124.845 267.944H126.573C126.701 267.944 126.781 267.864 126.781 267.736V267.112C126.781 266.984 126.701 266.904 126.573 266.904H124.845C124.797 266.904 124.765 266.872 124.765 266.824V266.52C124.765 265.304 125.069 264.792 126.285 264.792ZM131.988 264.792H132.308C132.436 264.792 132.516 264.712 132.516 264.584V264.008C132.516 263.88 132.436 263.8 132.308 263.8H131.892C129.908 263.8 129.348 264.552 129.348 266.456V266.824C129.348 266.872 129.316 266.904 129.268 266.904H128.26C128.132 266.904 128.052 266.984 128.052 267.112V267.736C128.052 267.864 128.132 267.944 128.26 267.944H129.268C129.316 267.944 129.348 267.976 129.348 268.024V274.792C129.348 274.92 129.428 275 129.556 275H130.26C130.388 275 130.468 274.92 130.468 274.792V268.024C130.468 267.976 130.5 267.944 130.548 267.944H132.276C132.404 267.944 132.484 267.864 132.484 267.736V267.112C132.484 266.984 132.404 266.904 132.276 266.904H130.548C130.5 266.904 130.468 266.872 130.468 266.824V266.52C130.468 265.304 130.772 264.792 131.988 264.792ZM136.893 274.152C135.725 274.152 134.941 273.512 134.717 272.584C134.653 272.344 134.621 271.944 134.621 271.416C134.621 271.368 134.653 271.336 134.701 271.336H139.821C139.949 271.336 140.029 271.256 140.029 271.128C140.029 270.376 140.013 269.96 139.933 269.528C139.645 267.848 138.637 266.776 136.733 266.776C135.149 266.776 133.997 267.688 133.645 269.064C133.517 269.56 133.501 270.104 133.501 270.92C133.501 271.816 133.581 272.536 133.805 273.128C134.237 274.36 135.277 275.128 136.797 275.128C138.237 275.128 139.277 274.424 139.773 273.384C139.837 273.272 139.789 273.176 139.677 273.112L139.213 272.856C139.101 272.792 138.989 272.84 138.941 272.952C138.573 273.672 137.885 274.136 136.893 274.152ZM136.733 267.768C137.837 267.768 138.573 268.408 138.797 269.336C138.845 269.56 138.877 269.928 138.893 270.36C138.893 270.408 138.861 270.44 138.813 270.44H134.701C134.653 270.44 134.621 270.408 134.621 270.36C134.637 269.896 134.669 269.528 134.749 269.272C134.957 268.392 135.645 267.768 136.733 267.768ZM145.552 266.824C144.624 266.824 143.936 267.304 143.504 268.04C143.472 268.104 143.424 268.088 143.424 268.008V267.112C143.424 266.984 143.344 266.904 143.216 266.904H142.496C142.368 266.904 142.288 266.984 142.288 267.112V274.792C142.288 274.92 142.368 275 142.496 275H143.216C143.344 275 143.424 274.92 143.424 274.792V270.12C143.424 268.92 144.24 268.056 145.344 268.024C145.68 268.008 145.936 268.04 146.128 268.104C146.272 268.152 146.352 268.104 146.384 267.976L146.544 267.272C146.576 267.16 146.544 267.064 146.432 267.016C146.224 266.904 145.952 266.824 145.552 266.824ZM150.725 275.08C152.533 275.08 153.701 274.168 153.701 272.792C153.701 271.208 152.149 270.776 150.789 270.392C149.701 270.072 148.837 269.784 148.837 268.984C148.837 268.216 149.573 267.752 150.645 267.752C151.845 267.752 152.565 268.328 152.565 269.032V269.128C152.565 269.192 152.645 269.24 152.773 269.24H153.429C153.557 269.24 153.637 269.16 153.637 269.032C153.637 267.768 152.453 266.824 150.661 266.824C148.933 266.824 147.733 267.688 147.733 269.064C147.733 270.584 149.205 271.048 150.581 271.448C151.637 271.768 152.565 272.008 152.565 272.872C152.565 273.624 151.829 274.2 150.709 274.2C149.557 274.2 148.789 273.56 148.789 272.888V272.744C148.789 272.664 148.709 272.6 148.581 272.6H147.893C147.765 272.6 147.685 272.68 147.685 272.808V272.952C147.685 274.12 148.885 275.08 150.725 275.08ZM161.791 266.776C160.143 266.776 158.959 267.576 158.751 268.744C158.735 268.856 158.815 268.904 158.943 268.92L159.727 269.016C159.855 269.032 159.935 268.984 159.967 268.856C160.143 268.184 160.799 267.768 161.807 267.768C163.135 267.768 163.679 268.488 163.679 269.528V270.12C163.679 270.168 163.647 270.2 163.599 270.2H161.743C159.663 270.2 158.447 271.192 158.447 272.792C158.447 274.472 159.727 275.128 161.087 275.128C162.095 275.128 162.991 274.808 163.583 274.184C163.631 274.12 163.679 274.152 163.679 274.216V274.792C163.679 274.92 163.759 275 163.887 275H164.607C164.735 275 164.815 274.92 164.815 274.792V269.464C164.815 267.88 163.743 266.776 161.791 266.776ZM161.343 274.152C160.367 274.152 159.583 273.704 159.583 272.728C159.583 271.688 160.527 271.096 161.919 271.096H163.599C163.647 271.096 163.679 271.128 163.679 271.176V272.408C163.679 273.528 162.527 274.152 161.343 274.152ZM170.523 266.792C169.595 266.792 168.843 267.112 168.379 267.752C168.347 267.816 168.299 267.768 168.299 267.704V267.112C168.299 266.984 168.219 266.904 168.091 266.904H167.371C167.243 266.904 167.163 266.984 167.163 267.112V274.792C167.163 274.92 167.243 275 167.371 275H168.091C168.219 275 168.299 274.92 168.299 274.792V269.464C168.411 268.456 169.179 267.784 170.267 267.784C171.403 267.784 172.171 268.6 172.171 269.784V274.792C172.171 274.92 172.251 275 172.379 275H173.099C173.227 275 173.307 274.92 173.307 274.792V269.56C173.307 267.88 172.203 266.792 170.523 266.792ZM180.764 264.008V267.704C180.764 267.768 180.716 267.8 180.668 267.736C180.204 267.128 179.484 266.776 178.636 266.776C177.084 266.776 176.06 267.64 175.676 268.968C175.516 269.512 175.484 270.168 175.484 270.952C175.484 271.768 175.532 272.424 175.708 272.984C176.092 274.28 177.116 275.128 178.636 275.128C179.484 275.128 180.204 274.776 180.668 274.152C180.716 274.104 180.764 274.12 180.764 274.184V274.792C180.764 274.92 180.844 275 180.972 275H181.692C181.82 275 181.9 274.92 181.9 274.792V264.008C181.9 263.88 181.82 263.8 181.692 263.8H180.972C180.844 263.8 180.764 263.88 180.764 264.008ZM180.46 272.904C180.204 273.624 179.628 274.136 178.748 274.136C177.852 274.136 177.164 273.656 176.908 272.888C176.716 272.456 176.62 271.992 176.62 270.952C176.62 269.848 176.748 269.368 176.988 268.936C177.26 268.248 177.9 267.768 178.764 267.768C179.612 267.768 180.188 268.264 180.444 268.968C180.636 269.4 180.732 269.88 180.732 270.952C180.732 272.008 180.652 272.488 180.46 272.904ZM190.319 275.08C192.127 275.08 193.295 274.168 193.295 272.792C193.295 271.208 191.743 270.776 190.383 270.392C189.295 270.072 188.431 269.784 188.431 268.984C188.431 268.216 189.167 267.752 190.239 267.752C191.439 267.752 192.159 268.328 192.159 269.032V269.128C192.159 269.192 192.239 269.24 192.367 269.24H193.023C193.151 269.24 193.231 269.16 193.231 269.032C193.231 267.768 192.047 266.824 190.255 266.824C188.527 266.824 187.327 267.688 187.327 269.064C187.327 270.584 188.799 271.048 190.175 271.448C191.231 271.768 192.159 272.008 192.159 272.872C192.159 273.624 191.423 274.2 190.303 274.2C189.151 274.2 188.383 273.56 188.383 272.888V272.744C188.383 272.664 188.303 272.6 188.175 272.6H187.487C187.359 272.6 187.279 272.68 187.279 272.808V272.952C187.279 274.12 188.479 275.08 190.319 275.08ZM196.594 275H197.394C197.506 275 197.586 274.952 197.618 274.824L199.282 268.92C199.298 268.856 199.362 268.856 199.378 268.92L201.106 274.824C201.138 274.952 201.218 275 201.33 275H202.114C202.226 275 202.306 274.952 202.338 274.824L204.61 267.16C204.658 267.016 204.578 266.92 204.434 266.92L203.698 266.904C203.586 266.904 203.49 266.952 203.458 267.08L201.746 273.32C201.73 273.384 201.666 273.384 201.65 273.32L199.906 267.08C199.874 266.952 199.794 266.904 199.682 266.904H198.978C198.866 266.904 198.786 266.952 198.754 267.08L197.042 273.32C197.026 273.384 196.962 273.384 196.946 273.32L195.282 267.08C195.25 266.952 195.17 266.904 195.058 266.904H194.306C194.162 266.904 194.082 267 194.13 267.144L196.37 274.824C196.402 274.952 196.482 275 196.594 275ZM209.041 266.776C207.393 266.776 206.209 267.576 206.001 268.744C205.985 268.856 206.065 268.904 206.193 268.92L206.977 269.016C207.105 269.032 207.185 268.984 207.217 268.856C207.393 268.184 208.049 267.768 209.057 267.768C210.385 267.768 210.929 268.488 210.929 269.528V270.12C210.929 270.168 210.897 270.2 210.849 270.2H208.993C206.913 270.2 205.697 271.192 205.697 272.792C205.697 274.472 206.977 275.128 208.337 275.128C209.345 275.128 210.241 274.808 210.833 274.184C210.881 274.12 210.929 274.152 210.929 274.216V274.792C210.929 274.92 211.009 275 211.137 275H211.857C211.985 275 212.065 274.92 212.065 274.792V269.464C212.065 267.88 210.993 266.776 209.041 266.776ZM208.593 274.152C207.617 274.152 206.833 273.704 206.833 272.728C206.833 271.688 207.777 271.096 209.169 271.096H210.849C210.897 271.096 210.929 271.128 210.929 271.176V272.408C210.929 273.528 209.777 274.152 208.593 274.152ZM219.405 267.112V267.656C219.405 267.72 219.357 267.752 219.309 267.688C218.845 267.128 218.141 266.776 217.165 266.776C215.725 266.776 214.685 267.656 214.317 268.904C214.141 269.448 214.109 270.12 214.109 270.952C214.109 271.736 214.157 272.408 214.301 272.904C214.685 274.312 215.901 275.048 217.229 275.048C218.221 275.048 218.877 274.664 219.309 274.104C219.357 274.04 219.405 274.072 219.405 274.136V274.696C219.405 276.488 218.445 277.208 216.189 277.112C216.061 277.096 215.981 277.16 215.981 277.304L215.949 277.944C215.949 278.088 216.013 278.152 216.157 278.168C218.669 278.312 220.541 277.432 220.541 274.728V267.112C220.541 266.984 220.461 266.904 220.333 266.904H219.613C219.485 266.904 219.405 266.984 219.405 267.112ZM219.325 272.552C219.165 273.384 218.509 274.088 217.405 274.088C216.349 274.088 215.613 273.4 215.405 272.536C215.325 272.312 215.245 271.8 215.245 270.92C215.245 270.056 215.309 269.624 215.405 269.32C215.661 268.456 216.349 267.768 217.405 267.768C218.461 267.768 219.149 268.456 219.309 269.32C219.389 269.64 219.405 269.832 219.405 270.936C219.405 272.04 219.389 272.248 219.325 272.552ZM227.89 275H228.69C228.802 275 228.882 274.952 228.914 274.824L230.578 268.92C230.594 268.856 230.658 268.856 230.674 268.92L232.402 274.824C232.434 274.952 232.514 275 232.626 275H233.41C233.522 275 233.602 274.952 233.634 274.824L235.906 267.16C235.954 267.016 235.874 266.92 235.73 266.92L234.994 266.904C234.882 266.904 234.786 266.952 234.754 267.08L233.042 273.32C233.026 273.384 232.962 273.384 232.946 273.32L231.202 267.08C231.17 266.952 231.09 266.904 230.978 266.904H230.274C230.162 266.904 230.082 266.952 230.05 267.08L228.338 273.32C228.322 273.384 228.258 273.384 228.242 273.32L226.578 267.08C226.546 266.952 226.466 266.904 226.354 266.904H225.602C225.458 266.904 225.378 267 225.426 267.144L227.666 274.824C227.698 274.952 227.778 275 227.89 275ZM241.07 266.792C240.142 266.792 239.39 267.112 238.926 267.752C238.894 267.816 238.846 267.768 238.846 267.704V264.008C238.846 263.88 238.766 263.8 238.638 263.8H237.918C237.79 263.8 237.71 263.88 237.71 264.008V274.792C237.71 274.92 237.79 275 237.918 275H238.638C238.766 275 238.846 274.92 238.846 274.792V269.464C238.958 268.456 239.726 267.784 240.814 267.784C241.95 267.784 242.718 268.6 242.718 269.784V274.792C242.718 274.92 242.798 275 242.926 275H243.646C243.774 275 243.854 274.92 243.854 274.792V269.56C243.854 267.88 242.75 266.792 241.07 266.792ZM249.487 274.152C248.319 274.152 247.535 273.512 247.311 272.584C247.247 272.344 247.215 271.944 247.215 271.416C247.215 271.368 247.247 271.336 247.295 271.336H252.415C252.543 271.336 252.623 271.256 252.623 271.128C252.623 270.376 252.607 269.96 252.527 269.528C252.239 267.848 251.231 266.776 249.327 266.776C247.743 266.776 246.591 267.688 246.239 269.064C246.111 269.56 246.095 270.104 246.095 270.92C246.095 271.816 246.175 272.536 246.399 273.128C246.831 274.36 247.871 275.128 249.391 275.128C250.831 275.128 251.871 274.424 252.367 273.384C252.431 273.272 252.383 273.176 252.271 273.112L251.807 272.856C251.695 272.792 251.583 272.84 251.535 272.952C251.167 273.672 250.479 274.136 249.487 274.152ZM249.327 267.768C250.431 267.768 251.167 268.408 251.391 269.336C251.439 269.56 251.471 269.928 251.487 270.36C251.487 270.408 251.455 270.44 251.407 270.44H247.295C247.247 270.44 247.215 270.408 247.215 270.36C247.231 269.896 247.263 269.528 247.343 269.272C247.551 268.392 248.239 267.768 249.327 267.768ZM258.242 266.792C257.314 266.792 256.562 267.112 256.098 267.752C256.066 267.816 256.018 267.768 256.018 267.704V267.112C256.018 266.984 255.938 266.904 255.81 266.904H255.09C254.962 266.904 254.882 266.984 254.882 267.112V274.792C254.882 274.92 254.962 275 255.09 275H255.81C255.938 275 256.018 274.92 256.018 274.792V269.464C256.13 268.456 256.898 267.784 257.986 267.784C259.122 267.784 259.89 268.6 259.89 269.784V274.792C259.89 274.92 259.97 275 260.098 275H260.818C260.946 275 261.026 274.92 261.026 274.792V269.56C261.026 267.88 259.922 266.792 258.242 266.792ZM266.342 278.2H266.454C268.23 278.2 268.71 277.752 269.43 275.704L272.374 267.144C272.422 267 272.342 266.904 272.198 266.904H271.43C271.318 266.904 271.238 266.952 271.206 267.08L269.19 273.352C269.174 273.432 269.11 273.432 269.094 273.352L267.03 267.08C266.998 266.968 266.902 266.904 266.79 266.904H266.038C265.894 266.904 265.814 267 265.862 267.144L268.55 274.952C268.566 275 268.566 275.016 268.55 275.048C268.006 276.84 267.654 277.224 266.454 277.224H266.342C266.278 277.224 266.23 277.304 266.23 277.432V277.992C266.23 278.12 266.278 278.2 266.342 278.2ZM276.923 275.128C278.443 275.128 279.611 274.28 280.027 272.904C280.187 272.376 280.251 271.704 280.251 270.936C280.251 270.184 280.187 269.512 280.027 268.968C279.627 267.624 278.459 266.776 276.923 266.776C275.339 266.776 274.187 267.624 273.771 268.984C273.627 269.496 273.563 270.152 273.563 270.936C273.563 271.704 273.627 272.376 273.787 272.904C274.203 274.28 275.355 275.128 276.923 275.128ZM276.923 274.136C275.851 274.136 275.083 273.528 274.843 272.568C274.747 272.216 274.715 271.64 274.715 270.952C274.715 270.28 274.747 269.688 274.843 269.336C275.099 268.392 275.851 267.768 276.891 267.768C277.963 267.768 278.731 268.392 278.971 269.336C279.067 269.688 279.099 270.248 279.099 270.952C279.099 271.592 279.067 272.184 278.971 272.568C278.715 273.528 277.947 274.136 276.923 274.136ZM287.449 267.112V272.136C287.449 273.32 286.681 274.12 285.465 274.12C284.281 274.12 283.561 273.336 283.561 272.136V267.112C283.561 266.984 283.481 266.904 283.353 266.904H282.633C282.505 266.904 282.425 266.984 282.425 267.112V272.472C282.425 274.184 283.721 275.112 285.241 275.112C286.217 275.112 286.921 274.76 287.353 274.152C287.401 274.088 287.449 274.12 287.449 274.184V274.792C287.449 274.92 287.529 275 287.657 275H288.377C288.505 275 288.585 274.92 288.585 274.792V267.112C288.585 266.984 288.505 266.904 288.377 266.904H287.657C287.529 266.904 287.449 266.984 287.449 267.112ZM64.0454 301.08C65.8534 301.08 67.0214 300.168 67.0214 298.792C67.0214 297.208 65.4694 296.776 64.1094 296.392C63.0214 296.072 62.1574 295.784 62.1574 294.984C62.1574 294.216 62.8934 293.752 63.9654 293.752C65.1654 293.752 65.8854 294.328 65.8854 295.032V295.128C65.8854 295.192 65.9654 295.24 66.0934 295.24H66.7494C66.8774 295.24 66.9574 295.16 66.9574 295.032C66.9574 293.768 65.7734 292.824 63.9814 292.824C62.2534 292.824 61.0534 293.688 61.0534 295.064C61.0534 296.584 62.5254 297.048 63.9014 297.448C64.9574 297.768 65.8854 298.008 65.8854 298.872C65.8854 299.624 65.1494 300.2 64.0294 300.2C62.8774 300.2 62.1094 299.56 62.1094 298.888V298.744C62.1094 298.664 62.0294 298.6 61.9014 298.6H61.2134C61.0854 298.6 61.0054 298.68 61.0054 298.808V298.952C61.0054 300.12 62.2054 301.08 64.0454 301.08ZM74.0041 293.112V298.136C74.0041 299.32 73.2361 300.12 72.0201 300.12C70.8361 300.12 70.1161 299.336 70.1161 298.136V293.112C70.1161 292.984 70.0361 292.904 69.9081 292.904H69.1881C69.0601 292.904 68.9801 292.984 68.9801 293.112V298.472C68.9801 300.184 70.2761 301.112 71.7961 301.112C72.7721 301.112 73.4761 300.76 73.9081 300.152C73.9561 300.088 74.0041 300.12 74.0041 300.184V300.792C74.0041 300.92 74.0841 301 74.2121 301H74.9321C75.0601 301 75.1401 300.92 75.1401 300.792V293.112C75.1401 292.984 75.0601 292.904 74.9321 292.904H74.2121C74.0841 292.904 74.0041 292.984 74.0041 293.112ZM83.9103 294.968C83.5263 293.64 82.5023 292.776 80.9503 292.776C80.1023 292.776 79.3823 293.128 78.9183 293.736C78.8703 293.8 78.8223 293.768 78.8223 293.704V290.008C78.8223 289.88 78.7423 289.8 78.6143 289.8H77.8943C77.7663 289.8 77.6863 289.88 77.6863 290.008V300.792C77.6863 300.92 77.7663 301 77.8943 301H78.6143C78.7423 301 78.8223 300.92 78.8223 300.792V300.184C78.8223 300.12 78.8703 300.104 78.9183 300.152C79.3823 300.776 80.1023 301.128 80.9503 301.128C82.4703 301.128 83.4943 300.28 83.8783 298.984C84.0543 298.424 84.1023 297.768 84.1023 296.952C84.1023 296.168 84.0703 295.512 83.9103 294.968ZM82.6783 298.888C82.4223 299.656 81.7343 300.136 80.8383 300.136C79.9583 300.136 79.3823 299.624 79.1263 298.904C78.9343 298.488 78.8543 298.008 78.8543 296.952C78.8543 295.88 78.9503 295.4 79.1423 294.968C79.3983 294.264 79.9743 293.768 80.8223 293.768C81.6863 293.768 82.3263 294.248 82.5983 294.936C82.8383 295.368 82.9663 295.848 82.9663 296.952C82.9663 297.992 82.8703 298.456 82.6783 298.888ZM89.0141 301.08C90.8221 301.08 91.9901 300.168 91.9901 298.792C91.9901 297.208 90.4381 296.776 89.0781 296.392C87.9901 296.072 87.1261 295.784 87.1261 294.984C87.1261 294.216 87.8621 293.752 88.9341 293.752C90.1341 293.752 90.8541 294.328 90.8541 295.032V295.128C90.8541 295.192 90.9341 295.24 91.0621 295.24H91.7181C91.8461 295.24 91.9261 295.16 91.9261 295.032C91.9261 293.768 90.7421 292.824 88.9501 292.824C87.2221 292.824 86.0221 293.688 86.0221 295.064C86.0221 296.584 87.4941 297.048 88.8701 297.448C89.9261 297.768 90.8541 298.008 90.8541 298.872C90.8541 299.624 90.1181 300.2 88.9981 300.2C87.8461 300.2 87.0781 299.56 87.0781 298.888V298.744C87.0781 298.664 86.9981 298.6 86.8701 298.6H86.1821C86.0541 298.6 85.9741 298.68 85.9741 298.808V298.952C85.9741 300.12 87.1741 301.08 89.0141 301.08ZM97.1329 301.128C98.7009 301.128 99.9489 300.28 100.269 299.048C100.301 298.936 100.317 298.84 100.333 298.776C100.349 298.632 100.269 298.552 100.141 298.536L99.4529 298.424C99.3249 298.408 99.2289 298.456 99.2129 298.6L99.1969 298.616C99.1969 298.632 99.1969 298.664 99.1809 298.696C99.0049 299.512 98.2049 300.136 97.1329 300.136C96.0449 300.136 95.3089 299.496 95.1009 298.568C95.0209 298.248 94.9569 297.72 94.9569 296.936C94.9569 296.216 95.0209 295.656 95.1009 295.32C95.3089 294.408 96.0449 293.768 97.1329 293.768C98.2369 293.768 99.0209 294.44 99.1969 295.224C99.2129 295.288 99.2289 295.352 99.2289 295.416C99.2609 295.56 99.3409 295.608 99.4689 295.592L100.173 295.512C100.301 295.496 100.381 295.416 100.365 295.272C100.349 295.16 100.317 295 100.269 294.84C99.9489 293.704 98.7489 292.776 97.1329 292.776C95.5809 292.776 94.4129 293.656 94.0289 294.968C93.9009 295.464 93.8209 296.04 93.8209 296.92C93.8209 297.736 93.8689 298.36 94.0289 298.904C94.4289 300.248 95.5649 301.128 97.1329 301.128ZM105.653 292.824C104.725 292.824 104.037 293.304 103.605 294.04C103.573 294.104 103.525 294.088 103.525 294.008V293.112C103.525 292.984 103.445 292.904 103.317 292.904H102.597C102.469 292.904 102.389 292.984 102.389 293.112V300.792C102.389 300.92 102.469 301 102.597 301H103.317C103.445 301 103.525 300.92 103.525 300.792V296.12C103.525 294.92 104.341 294.056 105.445 294.024C105.781 294.008 106.037 294.04 106.229 294.104C106.373 294.152 106.453 294.104 106.485 293.976L106.645 293.272C106.677 293.16 106.645 293.064 106.533 293.016C106.325 292.904 106.053 292.824 105.653 292.824ZM108.906 291.448C109.418 291.448 109.77 291.112 109.77 290.616C109.77 290.136 109.418 289.8 108.906 289.8C108.394 289.8 108.042 290.136 108.042 290.616C108.042 291.112 108.394 291.448 108.906 291.448ZM108.554 301H109.274C109.402 301 109.482 300.92 109.482 300.792V293.112C109.482 292.984 109.402 292.904 109.274 292.904H108.554C108.426 292.904 108.346 292.984 108.346 293.112V300.792C108.346 300.92 108.426 301 108.554 301ZM118.363 294.968C117.979 293.64 116.955 292.776 115.403 292.776C114.555 292.776 113.835 293.128 113.371 293.736C113.323 293.8 113.275 293.768 113.275 293.704V290.008C113.275 289.88 113.195 289.8 113.067 289.8H112.347C112.219 289.8 112.139 289.88 112.139 290.008V300.792C112.139 300.92 112.219 301 112.347 301H113.067C113.195 301 113.275 300.92 113.275 300.792V300.184C113.275 300.12 113.323 300.104 113.371 300.152C113.835 300.776 114.555 301.128 115.403 301.128C116.923 301.128 117.947 300.28 118.331 298.984C118.507 298.424 118.555 297.768 118.555 296.952C118.555 296.168 118.523 295.512 118.363 294.968ZM117.131 298.888C116.875 299.656 116.187 300.136 115.291 300.136C114.411 300.136 113.835 299.624 113.579 298.904C113.387 298.488 113.307 298.008 113.307 296.952C113.307 295.88 113.403 295.4 113.595 294.968C113.851 294.264 114.427 293.768 115.275 293.768C116.139 293.768 116.779 294.248 117.051 294.936C117.291 295.368 117.419 295.848 117.419 296.952C117.419 297.992 117.323 298.456 117.131 298.888ZM123.963 300.152C122.795 300.152 122.011 299.512 121.787 298.584C121.723 298.344 121.691 297.944 121.691 297.416C121.691 297.368 121.723 297.336 121.771 297.336H126.891C127.019 297.336 127.099 297.256 127.099 297.128C127.099 296.376 127.083 295.96 127.003 295.528C126.715 293.848 125.707 292.776 123.803 292.776C122.219 292.776 121.067 293.688 120.715 295.064C120.587 295.56 120.571 296.104 120.571 296.92C120.571 297.816 120.651 298.536 120.875 299.128C121.307 300.36 122.347 301.128 123.867 301.128C125.307 301.128 126.347 300.424 126.843 299.384C126.907 299.272 126.859 299.176 126.747 299.112L126.283 298.856C126.171 298.792 126.059 298.84 126.011 298.952C125.643 299.672 124.955 300.136 123.963 300.152ZM123.803 293.768C124.907 293.768 125.643 294.408 125.867 295.336C125.915 295.56 125.947 295.928 125.963 296.36C125.963 296.408 125.931 296.44 125.883 296.44H121.771C121.723 296.44 121.691 296.408 121.691 296.36C121.707 295.896 121.739 295.528 121.819 295.272C122.027 294.392 122.715 293.768 123.803 293.768ZM129.046 302.264H129.446C129.558 302.264 129.654 302.2 129.686 302.088L130.55 298.744C130.582 298.6 130.518 298.52 130.374 298.52H129.766C129.654 298.52 129.574 298.6 129.542 298.712L128.854 302.04C128.822 302.184 128.902 302.264 129.046 302.264ZM137.156 291.448C137.668 291.448 138.02 291.112 138.02 290.616C138.02 290.136 137.668 289.8 137.156 289.8C136.644 289.8 136.292 290.136 136.292 290.616C136.292 291.112 136.644 291.448 137.156 291.448ZM136.804 301H137.524C137.652 301 137.732 300.92 137.732 300.792V293.112C137.732 292.984 137.652 292.904 137.524 292.904H136.804C136.676 292.904 136.596 292.984 136.596 293.112V300.792C136.596 300.92 136.676 301 136.804 301ZM143.749 292.792C142.821 292.792 142.069 293.112 141.605 293.752C141.573 293.816 141.525 293.768 141.525 293.704V293.112C141.525 292.984 141.445 292.904 141.317 292.904H140.597C140.469 292.904 140.389 292.984 140.389 293.112V300.792C140.389 300.92 140.469 301 140.597 301H141.317C141.445 301 141.525 300.92 141.525 300.792V295.464C141.637 294.456 142.405 293.784 143.493 293.784C144.629 293.784 145.397 294.6 145.397 295.784V300.792C145.397 300.92 145.477 301 145.605 301H146.325C146.453 301 146.533 300.92 146.533 300.792V295.56C146.533 293.88 145.429 292.792 143.749 292.792ZM152.07 301.128C153.638 301.128 154.886 300.28 155.206 299.048C155.238 298.936 155.254 298.84 155.27 298.776C155.286 298.632 155.206 298.552 155.078 298.536L154.39 298.424C154.262 298.408 154.166 298.456 154.15 298.6L154.134 298.616C154.134 298.632 154.134 298.664 154.118 298.696C153.942 299.512 153.142 300.136 152.07 300.136C150.982 300.136 150.246 299.496 150.038 298.568C149.958 298.248 149.894 297.72 149.894 296.936C149.894 296.216 149.958 295.656 150.038 295.32C150.246 294.408 150.982 293.768 152.07 293.768C153.174 293.768 153.958 294.44 154.134 295.224C154.15 295.288 154.166 295.352 154.166 295.416C154.198 295.56 154.278 295.608 154.406 295.592L155.11 295.512C155.238 295.496 155.318 295.416 155.302 295.272C155.286 295.16 155.254 295 155.206 294.84C154.886 293.704 153.686 292.776 152.07 292.776C150.518 292.776 149.35 293.656 148.966 294.968C148.838 295.464 148.758 296.04 148.758 296.92C148.758 297.736 148.806 298.36 148.966 298.904C149.366 300.248 150.502 301.128 152.07 301.128ZM157.535 301H158.255C158.383 301 158.463 300.92 158.463 300.792V290.008C158.463 289.88 158.383 289.8 158.255 289.8H157.535C157.407 289.8 157.327 289.88 157.327 290.008V300.792C157.327 300.92 157.407 301 157.535 301ZM165.942 293.112V298.136C165.942 299.32 165.174 300.12 163.958 300.12C162.774 300.12 162.054 299.336 162.054 298.136V293.112C162.054 292.984 161.974 292.904 161.846 292.904H161.126C160.998 292.904 160.918 292.984 160.918 293.112V298.472C160.918 300.184 162.214 301.112 163.734 301.112C164.71 301.112 165.414 300.76 165.846 300.152C165.894 300.088 165.942 300.12 165.942 300.184V300.792C165.942 300.92 166.022 301 166.15 301H166.87C166.998 301 167.078 300.92 167.078 300.792V293.112C167.078 292.984 166.998 292.904 166.87 292.904H166.15C166.022 292.904 165.942 292.984 165.942 293.112ZM174.6 290.008V293.704C174.6 293.768 174.552 293.8 174.504 293.736C174.04 293.128 173.32 292.776 172.472 292.776C170.92 292.776 169.896 293.64 169.512 294.968C169.352 295.512 169.32 296.168 169.32 296.952C169.32 297.768 169.368 298.424 169.544 298.984C169.928 300.28 170.952 301.128 172.472 301.128C173.32 301.128 174.04 300.776 174.504 300.152C174.552 300.104 174.6 300.12 174.6 300.184V300.792C174.6 300.92 174.68 301 174.808 301H175.528C175.656 301 175.736 300.92 175.736 300.792V290.008C175.736 289.88 175.656 289.8 175.528 289.8H174.808C174.68 289.8 174.6 289.88 174.6 290.008ZM174.296 298.904C174.04 299.624 173.464 300.136 172.584 300.136C171.688 300.136 171 299.656 170.744 298.888C170.552 298.456 170.456 297.992 170.456 296.952C170.456 295.848 170.584 295.368 170.824 294.936C171.096 294.248 171.736 293.768 172.6 293.768C173.448 293.768 174.024 294.264 174.28 294.968C174.472 295.4 174.568 295.88 174.568 296.952C174.568 298.008 174.488 298.488 174.296 298.904ZM178.984 291.448C179.496 291.448 179.848 291.112 179.848 290.616C179.848 290.136 179.496 289.8 178.984 289.8C178.472 289.8 178.12 290.136 178.12 290.616C178.12 291.112 178.472 291.448 178.984 291.448ZM178.632 301H179.352C179.48 301 179.56 300.92 179.56 300.792V293.112C179.56 292.984 179.48 292.904 179.352 292.904H178.632C178.504 292.904 178.424 292.984 178.424 293.112V300.792C178.424 300.92 178.504 301 178.632 301ZM185.578 292.792C184.65 292.792 183.898 293.112 183.434 293.752C183.402 293.816 183.354 293.768 183.354 293.704V293.112C183.354 292.984 183.274 292.904 183.146 292.904H182.426C182.298 292.904 182.218 292.984 182.218 293.112V300.792C182.218 300.92 182.298 301 182.426 301H183.146C183.274 301 183.354 300.92 183.354 300.792V295.464C183.466 294.456 184.234 293.784 185.322 293.784C186.458 293.784 187.226 294.6 187.226 295.784V300.792C187.226 300.92 187.306 301 187.434 301H188.154C188.282 301 188.362 300.92 188.362 300.792V295.56C188.362 293.88 187.258 292.792 185.578 292.792ZM195.835 293.112V293.656C195.835 293.72 195.787 293.752 195.739 293.688C195.275 293.128 194.571 292.776 193.595 292.776C192.155 292.776 191.115 293.656 190.747 294.904C190.571 295.448 190.539 296.12 190.539 296.952C190.539 297.736 190.587 298.408 190.731 298.904C191.115 300.312 192.331 301.048 193.659 301.048C194.651 301.048 195.307 300.664 195.739 300.104C195.787 300.04 195.835 300.072 195.835 300.136V300.696C195.835 302.488 194.875 303.208 192.619 303.112C192.491 303.096 192.411 303.16 192.411 303.304L192.379 303.944C192.379 304.088 192.443 304.152 192.587 304.168C195.099 304.312 196.971 303.432 196.971 300.728V293.112C196.971 292.984 196.891 292.904 196.763 292.904H196.043C195.915 292.904 195.835 292.984 195.835 293.112ZM195.755 298.552C195.595 299.384 194.939 300.088 193.835 300.088C192.779 300.088 192.043 299.4 191.835 298.536C191.755 298.312 191.674 297.8 191.674 296.92C191.674 296.056 191.739 295.624 191.835 295.32C192.091 294.456 192.779 293.768 193.835 293.768C194.891 293.768 195.579 294.456 195.739 295.32C195.819 295.64 195.835 295.832 195.835 296.936C195.835 298.04 195.819 298.248 195.755 298.552ZM208.208 295.704C207.808 294.728 207.04 294.168 205.856 294.088C205.776 294.088 205.76 294.04 205.792 293.992L208.368 290.904C208.432 290.824 208.464 290.744 208.464 290.648V290.008C208.464 289.88 208.384 289.8 208.256 289.8H202.432C202.304 289.8 202.224 289.88 202.224 290.008V290.584C202.224 290.712 202.304 290.792 202.432 290.792H206.912C206.976 290.792 207.008 290.824 206.96 290.888L204.176 294.152C204.096 294.248 204.096 294.344 204.176 294.44L204.528 294.856C204.608 294.952 204.688 294.968 204.8 294.92C204.976 294.856 205.12 294.824 205.312 294.824C206.192 294.824 206.8 295.208 207.104 295.976C207.296 296.392 207.392 296.92 207.392 297.544C207.392 298.04 207.312 298.488 207.168 298.872C206.896 299.688 206.256 300.136 205.328 300.136C204.288 300.136 203.6 299.512 203.376 298.616C203.328 298.408 203.296 298.072 203.28 297.8C203.28 297.656 203.2 297.592 203.072 297.592H202.336C202.208 297.592 202.128 297.672 202.128 297.8C202.144 298.152 202.192 298.584 202.304 298.968C202.688 300.248 203.792 301.128 205.328 301.128C206.832 301.128 207.856 300.408 208.288 299.112C208.432 298.68 208.528 298.168 208.528 297.576C208.528 296.84 208.416 296.216 208.208 295.704ZM214.074 301.16C216.138 301.16 217.482 299.896 217.482 297.928V292.872C217.482 290.92 216.138 289.656 214.074 289.656C212.026 289.656 210.714 290.92 210.714 292.872V297.928C210.714 299.896 212.026 301.16 214.074 301.16ZM214.074 300.168C212.73 300.168 211.85 299.304 211.85 297.992V292.824C211.85 291.512 212.73 290.664 214.074 290.664C215.45 290.664 216.346 291.512 216.346 292.824V297.992C216.346 299.304 215.45 300.168 214.074 300.168ZM222.433 294.2C223.697 294.2 224.721 293.192 224.721 291.928C224.721 290.664 223.697 289.656 222.433 289.656C221.153 289.656 220.129 290.664 220.129 291.928C220.129 293.192 221.153 294.2 222.433 294.2ZM222.129 301H222.561C222.673 301 222.753 300.952 222.801 300.856L228.801 290.056C228.881 289.912 228.817 289.8 228.657 289.8H228.241C228.129 289.8 228.049 289.848 228.001 289.944L221.985 300.744C221.905 300.888 221.969 301 222.129 301ZM222.433 293.528C221.537 293.528 220.833 292.824 220.833 291.928C220.833 291.032 221.537 290.328 222.433 290.328C223.313 290.328 224.017 291.032 224.017 291.928C224.017 292.808 223.313 293.528 222.433 293.528ZM228.449 301.144C229.713 301.144 230.721 300.136 230.721 298.856C230.721 297.608 229.697 296.6 228.449 296.6C227.169 296.6 226.145 297.608 226.145 298.856C226.145 300.136 227.169 301.144 228.449 301.144ZM228.449 300.472C227.553 300.472 226.833 299.768 226.833 298.856C226.833 297.976 227.553 297.272 228.449 297.272C229.313 297.272 230.033 297.976 230.033 298.856C230.033 299.752 229.329 300.472 228.449 300.472ZM239.775 301.128C241.295 301.128 242.463 300.28 242.879 298.904C243.039 298.376 243.103 297.704 243.103 296.936C243.103 296.184 243.039 295.512 242.879 294.968C242.479 293.624 241.311 292.776 239.775 292.776C238.191 292.776 237.039 293.624 236.623 294.984C236.479 295.496 236.415 296.152 236.415 296.936C236.415 297.704 236.479 298.376 236.639 298.904C237.055 300.28 238.207 301.128 239.775 301.128ZM239.775 300.136C238.703 300.136 237.935 299.528 237.695 298.568C237.599 298.216 237.567 297.64 237.567 296.952C237.567 296.28 237.599 295.688 237.695 295.336C237.951 294.392 238.703 293.768 239.743 293.768C240.815 293.768 241.583 294.392 241.823 295.336C241.919 295.688 241.951 296.248 241.951 296.952C241.951 297.592 241.919 298.184 241.823 298.568C241.567 299.528 240.799 300.136 239.775 300.136ZM248.511 290.792H248.831C248.959 290.792 249.039 290.712 249.039 290.584V290.008C249.039 289.88 248.959 289.8 248.831 289.8H248.415C246.431 289.8 245.871 290.552 245.871 292.456V292.824C245.871 292.872 245.839 292.904 245.791 292.904H244.783C244.655 292.904 244.575 292.984 244.575 293.112V293.736C244.575 293.864 244.655 293.944 244.783 293.944H245.791C245.839 293.944 245.871 293.976 245.871 294.024V300.792C245.871 300.92 245.951 301 246.079 301H246.783C246.911 301 246.991 300.92 246.991 300.792V294.024C246.991 293.976 247.023 293.944 247.071 293.944H248.799C248.927 293.944 249.007 293.864 249.007 293.736V293.112C249.007 292.984 248.927 292.904 248.799 292.904H247.071C247.023 292.904 246.991 292.872 246.991 292.824V292.52C246.991 291.304 247.295 290.792 248.511 290.792ZM254.214 290.792H254.534C254.662 290.792 254.742 290.712 254.742 290.584V290.008C254.742 289.88 254.662 289.8 254.534 289.8H254.118C252.134 289.8 251.574 290.552 251.574 292.456V292.824C251.574 292.872 251.542 292.904 251.494 292.904H250.486C250.358 292.904 250.278 292.984 250.278 293.112V293.736C250.278 293.864 250.358 293.944 250.486 293.944H251.494C251.542 293.944 251.574 293.976 251.574 294.024V300.792C251.574 300.92 251.654 301 251.782 301H252.486C252.614 301 252.694 300.92 252.694 300.792V294.024C252.694 293.976 252.726 293.944 252.774 293.944H254.502C254.63 293.944 254.71 293.864 254.71 293.736V293.112C254.71 292.984 254.63 292.904 254.502 292.904H252.774C252.726 292.904 252.694 292.872 252.694 292.824V292.52C252.694 291.304 252.998 290.792 254.214 290.792ZM259.553 304.2H259.665C261.441 304.2 261.921 303.752 262.641 301.704L265.585 293.144C265.633 293 265.553 292.904 265.409 292.904H264.641C264.529 292.904 264.449 292.952 264.417 293.08L262.401 299.352C262.385 299.432 262.321 299.432 262.305 299.352L260.241 293.08C260.209 292.968 260.113 292.904 260.001 292.904H259.249C259.105 292.904 259.025 293 259.073 293.144L261.761 300.952C261.777 301 261.777 301.016 261.761 301.048C261.217 302.84 260.865 303.224 259.665 303.224H259.553C259.489 303.224 259.441 303.304 259.441 303.432V303.992C259.441 304.12 259.489 304.2 259.553 304.2ZM270.134 301.128C271.654 301.128 272.822 300.28 273.238 298.904C273.398 298.376 273.462 297.704 273.462 296.936C273.462 296.184 273.398 295.512 273.238 294.968C272.838 293.624 271.67 292.776 270.134 292.776C268.55 292.776 267.398 293.624 266.982 294.984C266.838 295.496 266.774 296.152 266.774 296.936C266.774 297.704 266.838 298.376 266.998 298.904C267.414 300.28 268.566 301.128 270.134 301.128ZM270.134 300.136C269.062 300.136 268.294 299.528 268.054 298.568C267.958 298.216 267.926 297.64 267.926 296.952C267.926 296.28 267.958 295.688 268.054 295.336C268.31 294.392 269.062 293.768 270.102 293.768C271.174 293.768 271.942 294.392 272.182 295.336C272.278 295.688 272.31 296.248 272.31 296.952C272.31 297.592 272.278 298.184 272.182 298.568C271.926 299.528 271.158 300.136 270.134 300.136ZM280.66 293.112V298.136C280.66 299.32 279.892 300.12 278.676 300.12C277.492 300.12 276.772 299.336 276.772 298.136V293.112C276.772 292.984 276.692 292.904 276.564 292.904H275.844C275.716 292.904 275.636 292.984 275.636 293.112V298.472C275.636 300.184 276.932 301.112 278.452 301.112C279.428 301.112 280.132 300.76 280.564 300.152C280.612 300.088 280.66 300.12 280.66 300.184V300.792C280.66 300.92 280.74 301 280.868 301H281.588C281.716 301 281.796 300.92 281.796 300.792V293.112C281.796 292.984 281.716 292.904 281.588 292.904H280.868C280.74 292.904 280.66 292.984 280.66 293.112ZM287.607 292.824C286.679 292.824 285.991 293.304 285.559 294.04C285.527 294.104 285.479 294.088 285.479 294.008V293.112C285.479 292.984 285.399 292.904 285.271 292.904H284.551C284.423 292.904 284.343 292.984 284.343 293.112V300.792C284.343 300.92 284.423 301 284.551 301H285.271C285.399 301 285.479 300.92 285.479 300.792V296.12C285.479 294.92 286.295 294.056 287.399 294.024C287.735 294.008 287.991 294.04 288.183 294.104C288.327 294.152 288.407 294.104 288.439 293.976L288.599 293.272C288.631 293.16 288.599 293.064 288.487 293.016C288.279 292.904 288.007 292.824 287.607 292.824ZM125.449 318.456V318.824C125.449 318.872 125.417 318.904 125.369 318.904H124.361C124.233 318.904 124.153 318.984 124.153 319.112V319.736C124.153 319.864 124.233 319.944 124.361 319.944H125.369C125.417 319.944 125.449 319.976 125.449 320.024V326.792C125.449 326.92 125.529 327 125.657 327H126.361C126.489 327 126.569 326.92 126.569 326.792V320.024C126.569 319.976 126.601 319.944 126.649 319.944H128.377C128.505 319.944 128.585 319.864 128.585 319.736V319.112C128.585 318.984 128.505 318.904 128.377 318.904H126.649C126.601 318.904 126.569 318.872 126.569 318.824V318.52C126.569 317.304 126.873 316.792 128.089 316.792H128.409C128.537 316.792 128.617 316.712 128.617 316.584V316.008C128.617 315.88 128.537 315.8 128.409 315.8H127.993C126.009 315.8 125.449 316.552 125.449 318.456ZM131.273 315.8C130.761 315.8 130.409 316.136 130.409 316.616C130.409 317.112 130.761 317.448 131.273 317.448C131.785 317.448 132.137 317.112 132.137 316.616C132.137 316.136 131.785 315.8 131.273 315.8ZM130.921 327H131.641C131.769 327 131.849 326.92 131.849 326.792V319.112C131.849 318.984 131.769 318.904 131.641 318.904H130.921C130.793 318.904 130.713 318.984 130.713 319.112V326.792C130.713 326.92 130.793 327 130.921 327ZM137.763 318.824C136.835 318.824 136.147 319.304 135.715 320.04C135.683 320.104 135.635 320.088 135.635 320.008V319.112C135.635 318.984 135.555 318.904 135.427 318.904H134.707C134.579 318.904 134.499 318.984 134.499 319.112V326.792C134.499 326.92 134.579 327 134.707 327H135.427C135.555 327 135.635 326.92 135.635 326.792V322.12C135.635 320.92 136.451 320.056 137.555 320.024C137.891 320.008 138.147 320.04 138.339 320.104C138.483 320.152 138.563 320.104 138.595 319.976L138.755 319.272C138.787 319.16 138.755 319.064 138.643 319.016C138.435 318.904 138.163 318.824 137.763 318.824ZM142.936 327.08C144.744 327.08 145.912 326.168 145.912 324.792C145.912 323.208 144.36 322.776 143 322.392C141.912 322.072 141.048 321.784 141.048 320.984C141.048 320.216 141.784 319.752 142.856 319.752C144.056 319.752 144.776 320.328 144.776 321.032V321.128C144.776 321.192 144.856 321.24 144.984 321.24H145.64C145.768 321.24 145.848 321.16 145.848 321.032C145.848 319.768 144.664 318.824 142.872 318.824C141.144 318.824 139.944 319.688 139.944 321.064C139.944 322.584 141.416 323.048 142.792 323.448C143.848 323.768 144.776 324.008 144.776 324.872C144.776 325.624 144.04 326.2 142.92 326.2C141.768 326.2 141 325.56 141 324.888V324.744C141 324.664 140.92 324.6 140.792 324.6H140.104C139.976 324.6 139.896 324.68 139.896 324.808V324.952C139.896 326.12 141.096 327.08 142.936 327.08ZM151.615 319.64V319.112C151.615 318.984 151.535 318.904 151.407 318.904H149.663C149.615 318.904 149.583 318.872 149.583 318.824V317.032C149.583 316.904 149.503 316.824 149.375 316.824H148.687C148.559 316.824 148.479 316.904 148.479 317.032V318.824C148.479 318.872 148.447 318.904 148.399 318.904H147.487C147.359 318.904 147.279 318.984 147.279 319.112V319.64C147.279 319.768 147.359 319.848 147.487 319.848H148.399C148.447 319.848 148.479 319.88 148.479 319.928V324.952C148.479 326.616 149.423 326.984 150.815 326.984H151.359C151.503 326.968 151.567 326.888 151.567 326.76V326.2C151.567 326.072 151.487 325.992 151.359 325.992H151.007C150.047 325.992 149.583 325.64 149.583 324.6V319.928C149.583 319.88 149.615 319.848 149.663 319.848H151.407C151.535 319.848 151.615 319.768 151.615 319.64ZM159.67 327.08C161.478 327.08 162.646 326.168 162.646 324.792C162.646 323.208 161.094 322.776 159.734 322.392C158.646 322.072 157.782 321.784 157.782 320.984C157.782 320.216 158.518 319.752 159.59 319.752C160.79 319.752 161.51 320.328 161.51 321.032V321.128C161.51 321.192 161.59 321.24 161.718 321.24H162.374C162.502 321.24 162.582 321.16 162.582 321.032C162.582 319.768 161.398 318.824 159.606 318.824C157.878 318.824 156.678 319.688 156.678 321.064C156.678 322.584 158.15 323.048 159.526 323.448C160.582 323.768 161.51 324.008 161.51 324.872C161.51 325.624 160.774 326.2 159.654 326.2C158.502 326.2 157.734 325.56 157.734 324.888V324.744C157.734 324.664 157.654 324.6 157.526 324.6H156.838C156.71 324.6 156.63 324.68 156.63 324.808V324.952C156.63 326.12 157.83 327.08 159.67 327.08ZM168.093 318.792C167.165 318.792 166.413 319.112 165.949 319.752C165.917 319.816 165.869 319.768 165.869 319.704V316.008C165.869 315.88 165.789 315.8 165.661 315.8H164.941C164.813 315.8 164.733 315.88 164.733 316.008V326.792C164.733 326.92 164.813 327 164.941 327H165.661C165.789 327 165.869 326.92 165.869 326.792V321.464C165.981 320.456 166.749 319.784 167.837 319.784C168.973 319.784 169.741 320.6 169.741 321.784V326.792C169.741 326.92 169.821 327 169.949 327H170.669C170.797 327 170.877 326.92 170.877 326.792V321.56C170.877 319.88 169.773 318.792 168.093 318.792ZM174.046 317.448C174.558 317.448 174.91 317.112 174.91 316.616C174.91 316.136 174.558 315.8 174.046 315.8C173.534 315.8 173.182 316.136 173.182 316.616C173.182 317.112 173.534 317.448 174.046 317.448ZM173.694 327H174.414C174.542 327 174.622 326.92 174.622 326.792V319.112C174.622 318.984 174.542 318.904 174.414 318.904H173.694C173.566 318.904 173.486 318.984 173.486 319.112V326.792C173.486 326.92 173.566 327 173.694 327ZM183.568 320.92C183.184 319.624 182.16 318.776 180.64 318.776C179.792 318.776 179.072 319.128 178.608 319.752C178.56 319.8 178.512 319.784 178.512 319.72V319.112C178.512 318.984 178.432 318.904 178.304 318.904H177.584C177.456 318.904 177.376 318.984 177.376 319.112V329.896C177.376 330.024 177.456 330.104 177.584 330.104H178.304C178.432 330.104 178.512 330.024 178.512 329.896V326.2C178.512 326.136 178.56 326.104 178.608 326.168C179.072 326.776 179.792 327.128 180.64 327.128C182.192 327.128 183.216 326.264 183.6 324.936C183.76 324.392 183.792 323.736 183.792 322.952C183.792 322.136 183.744 321.48 183.568 320.92ZM182.288 324.968C182.016 325.656 181.376 326.136 180.512 326.136C179.664 326.136 179.088 325.64 178.832 324.936C178.64 324.504 178.544 324.024 178.544 322.952C178.544 321.896 178.624 321.416 178.816 321C179.072 320.28 179.648 319.768 180.528 319.768C181.424 319.768 182.112 320.248 182.368 321.016C182.56 321.448 182.656 321.912 182.656 322.952C182.656 324.056 182.528 324.536 182.288 324.968ZM194.238 318.792C193.198 318.792 192.27 319.192 191.79 320.088C191.758 320.136 191.726 320.136 191.694 320.072C191.294 319.256 190.478 318.792 189.39 318.792C188.526 318.792 187.758 319.08 187.278 319.704C187.23 319.768 187.182 319.736 187.182 319.672V319.112C187.182 318.984 187.102 318.904 186.974 318.904H186.254C186.126 318.904 186.046 318.984 186.046 319.112V326.792C186.046 326.92 186.126 327 186.254 327H186.974C187.102 327 187.182 326.92 187.182 326.792V321.672C187.182 320.504 187.918 319.784 189.038 319.784C190.142 319.784 190.862 320.52 190.862 321.704V326.792C190.862 326.92 190.942 327 191.07 327H191.79C191.918 327 191.998 326.92 191.998 326.792V321.672C191.998 320.504 192.766 319.784 193.886 319.784C194.974 319.784 195.71 320.52 195.71 321.704V326.792C195.71 326.92 195.79 327 195.918 327H196.622C196.75 327 196.83 326.92 196.83 326.792V321.48C196.83 319.8 195.822 318.792 194.238 318.792ZM202.432 326.152C201.264 326.152 200.48 325.512 200.256 324.584C200.192 324.344 200.16 323.944 200.16 323.416C200.16 323.368 200.192 323.336 200.24 323.336H205.36C205.488 323.336 205.568 323.256 205.568 323.128C205.568 322.376 205.552 321.96 205.472 321.528C205.184 319.848 204.176 318.776 202.272 318.776C200.688 318.776 199.536 319.688 199.184 321.064C199.056 321.56 199.04 322.104 199.04 322.92C199.04 323.816 199.12 324.536 199.344 325.128C199.776 326.36 200.816 327.128 202.336 327.128C203.776 327.128 204.816 326.424 205.312 325.384C205.376 325.272 205.328 325.176 205.216 325.112L204.752 324.856C204.64 324.792 204.528 324.84 204.48 324.952C204.112 325.672 203.424 326.136 202.432 326.152ZM202.272 319.768C203.376 319.768 204.112 320.408 204.336 321.336C204.384 321.56 204.416 321.928 204.432 322.36C204.432 322.408 204.4 322.44 204.352 322.44H200.24C200.192 322.44 200.16 322.408 200.16 322.36C200.176 321.896 200.208 321.528 200.288 321.272C200.496 320.392 201.184 319.768 202.272 319.768ZM211.187 318.792C210.259 318.792 209.507 319.112 209.043 319.752C209.011 319.816 208.963 319.768 208.963 319.704V319.112C208.963 318.984 208.883 318.904 208.755 318.904H208.035C207.907 318.904 207.827 318.984 207.827 319.112V326.792C207.827 326.92 207.907 327 208.035 327H208.755C208.883 327 208.963 326.92 208.963 326.792V321.464C209.075 320.456 209.843 319.784 210.931 319.784C212.067 319.784 212.835 320.6 212.835 321.784V326.792C212.835 326.92 212.915 327 213.043 327H213.763C213.891 327 213.971 326.92 213.971 326.792V321.56C213.971 319.88 212.867 318.792 211.187 318.792ZM220.084 319.64V319.112C220.084 318.984 220.004 318.904 219.876 318.904H218.132C218.084 318.904 218.052 318.872 218.052 318.824V317.032C218.052 316.904 217.972 316.824 217.844 316.824H217.156C217.028 316.824 216.948 316.904 216.948 317.032V318.824C216.948 318.872 216.916 318.904 216.868 318.904H215.956C215.828 318.904 215.748 318.984 215.748 319.112V319.64C215.748 319.768 215.828 319.848 215.956 319.848H216.868C216.916 319.848 216.948 319.88 216.948 319.928V324.952C216.948 326.616 217.892 326.984 219.284 326.984H219.828C219.972 326.968 220.036 326.888 220.036 326.76V326.2C220.036 326.072 219.956 325.992 219.828 325.992H219.476C218.516 325.992 218.052 325.64 218.052 324.6V319.928C218.052 319.88 218.084 319.848 218.132 319.848H219.876C220.004 319.848 220.084 319.768 220.084 319.64ZM223.16 326.952C223.704 326.952 224.152 326.536 224.152 326.008C224.152 325.48 223.672 325.064 223.16 325.064C222.632 325.064 222.168 325.48 222.168 326.008C222.168 326.536 222.584 326.952 223.16 326.952Z" fill="#FEFCF7"/>
</g>
<path fill-rule="evenodd" clip-rule="evenodd" d="M171 95.9808C171.099 95.9935 171.2 96 171.302 96C171.876 96 172.442 95.9931 173 95.9796V106.5V111H200.956H201.711C204.612 111 207 108.63 207 105.75V98.25C207 95.37 204.612 93 201.711 93H189.58C198.049 89.7084 202 84.3266 202 80.0673C202 76.3466 199.05 72.003 190.731 72C179.993 72 173.912 79.6148 171 86.5904C168.087 79.6144 162.007 72 151.272 72C142.953 72 140 76.3442 140 80.0653C140 84.3253 143.952 89.708 152.421 93H140.289C137.388 93 135 95.37 135 98.25V105.75C135 108.63 137.388 111 140.289 111H141.044H169V106.5V95.9796C169.558 95.9931 170.124 96 170.698 96C170.8 96 170.901 95.9935 171 95.9808ZM174.175 91.4842C175.559 86.5561 179.734 76.4535 190.731 76.4535C193.954 76.4535 197.395 77.3999 197.395 80.0643C197.395 81.8534 195.839 84.6572 191.47 87.1643C188.321 88.9712 182.85 91.0926 174.175 91.4842ZM169 116H141V138.842C141 141.672 143.391 144 146.297 144H169V116ZM201 138.842V116H173V144H195.703C198.609 144 201 141.672 201 138.842ZM151.272 76.451C148.049 76.451 144.605 77.4006 144.605 80.0653C144.605 83.8546 151.46 90.7596 167.822 91.4866C166.441 86.5549 162.266 76.451 151.272 76.451Z" fill="#FDD6BA"/>
<defs>
<clipPath id="clip0_0_2090">
<rect width="255" height="134" fill="white" transform="translate(47 200)"/>
</clipPath>
</defs>
</svg>
